{
  "accessors": [
    {
      "bufferView": 2,
      "componentType": 5126,
      "count": 65532,
      "max": [
        0.16040988266468048,
        0.17666023969650269,
        0.4999687969684601
      ],
      "min": [
        -0.15468449890613556,
        -0.1766556203365326,
        -0.4999687969684601
      ],
      "type": "VEC3"
    },
    {
      "bufferView": 2,
      "byteOffset": 786384,
      "componentType": 5126,
      "count": 65532,
      "max": [
        0.9999697208404541,
        0.9999959468841553,
        0.999894380569458
      ],
      "min": [
        -0.9999821186065674,
        -0.9999671578407288,
        -0.9999961256980896
      ],
      "type": "VEC3"
    },
    {
      "bufferView": 1,
      "componentType": 5126,
      "count": 65532,
      "max": [
        0.9996175169944763,
        0.9996129870414734
      ],
      "min": [
        0.00039154267869889736,
        0.00038701295852661133
      ],
      "type": "VEC2"
    },
    {
      "bufferView": 1,
      "byteOffset": 524256,
      "componentType": 5126,
      "count": 65532,
      "max": [
        0.9996175169944763,
        0.9996129870414734
      ],
      "min": [
        0.00039154267869889736,
        0.00038701295852661133
      ],
      "type": "VEC2"
    },
    {
      "bufferView": 0,
      "componentType": 5125,
      "count": 257115,
      "type": "SCALAR"
    },
    {
      "bufferView": 2,
      "byteOffset": 1572768,
      "componentType": 5126,
      "count": 15680,
      "max": [
        0.15937234461307526,
        0.13468529284000397,
        0.4560103118419647
      ],
      "min": [
        -0.16040627658367157,
        -0.09655076265335083,
        -0.0032728612422943115
      ],
      "type": "VEC3"
    },
    {
      "bufferView": 2,
      "byteOffset": 1760928,
      "componentType": 5126,
      "count": 15680,
      "max": [
        0.999968409538269,
        0.9998301267623901,
        0.9999288320541382
      ],
      "min": [
        -0.9996245503425598,
        -0.9999310374259949,
        -0.999947726726532
      ],
      "type": "VEC3"
    },
    {
      "bufferView": 1,
      "byteOffset": 1048512,
      "componentType": 5126,
      "count": 15680,
      "max": [
        0.9996175169944763,
        0.9996129870414734
      ],
      "min": [
        0.00039154267869889736,
        0.00038701295852661133
      ],
      "type": "VEC2"
    },
    {
      "bufferView": 1,
      "byteOffset": 1173952,
      "componentType": 5126,
      "count": 15680,
      "max": [
        0.9996175169944763,
        0.9996129870414734
      ],
      "min": [
        0.00039154267869889736,
        0.00038701295852661133
      ],
      "type": "VEC2"
    },
    {
      "bufferView": 0,
      "byteOffset": 1028460,
      "componentType": 5125,
      "count": 42885,
      "type": "SCALAR"
    }
  ],
  "asset": {
    "extras": {
      "author": "Fadly.W (https://sketchfab.com/Fadly.W)",
      "license": "CC-BY-4.0 (http://creativecommons.org/licenses/by/4.0/)",
      "source": "https://sketchfab.com/3d-models/woman-standing-v16-5b412817044c409eb98a431fadefe170",
      "title": "Woman Standing V16"
    },
    "generator": "Sketchfab-0.13.0",
    "version": "2.0"
  },
  "bufferViews": [
    {
      "buffer": 0,
      "byteLength": 1200000,
      "name": "floatBufferViews",
      "target": 34963
    },
    {
      "buffer": 0,
      "byteLength": 1299392,
      "byteOffset": 1200000,
      "byteStride": 8,
      "name": "floatBufferViews",
      "target": 34962
    },
    {
      "buffer": 0,
      "byteLength": 1949088,
      "byteOffset": 2499392,
      "byteStride": 12,
      "name": "floatBufferViews",
      "target": 34962
    }
  ],
  "buffers": [
    {
      "byteLength": 4448480,
      "uri": "scene.bin"
    }
  ],
  "extensionsUsed": [
    "KHR_materials_unlit"
  ],
  "images": [
    {
      "uri": "textures/modddif_material_0_baseColor.png"
    }
  ],
  "materials": [
    {
      "doubleSided": true,
      "extensions": {
        "KHR_materials_unlit": {}
      },
      "name": "modddif_material_0",
      "pbrMetallicRoughness": {
        "baseColorTexture": {
          "index": 0
        },
        "metallicFactor": 0.0
      }
    }
  ],
  "meshes": [
    {
      "name": "Mesh_0_modddif_material_0_0",
      "primitives": [
        {
          "attributes": {
            "NORMAL": 1,
            "POSITION": 0,
            "TEXCOORD_0": 2,
            "TEXCOORD_1": 3
          },
          "indices": 4,
          "material": 0,
          "mode": 4
        }
      ]
    },
    {
      "name": "Mesh_0_modddif_material_0_0",
      "primitives": [
        {
          "attributes": {
            "NORMAL": 6,
            "POSITION": 5,
            "TEXCOORD_0": 7,
            "TEXCOORD_1": 8
          },
          "indices": 9,
          "material": 0,
          "mode": 4
        }
      ]
    }
  ],
  "nodes": [
    {
      "children": [
        1
      ],
      "matrix": [
        1.0,
        0.0,
        0.0,
        0.0,
        0.0,
        2.220446049250313e-16,
        -1.0,
        0.0,
        0.0,
        1.0,
        2.220446049250313e-16,
        0.0,
        0.0,
        0.0,
        0.0,
        1.0
      ],
      "name": "Sketchfab_model"
    },
    {
      "children": [
        2
      ],
      "matrix": [
        0.009999999776482582,
        0.0,
        0.0,
        0.0,
        0.0,
        0.0,
        0.009999999776482582,
        0.0,
        0.0,
        -0.009999999776482582,
        0.0,
        0.0,
        0.0,
        0.0,
        0.0,
        1.0
      ],
      "name": "Woman Standing V16 (100K).fbx"
    },
    {
      "children": [
        3
      ],
      "name": "RootNode"
    },
    {
      "children": [
        4,
        5
      ],
      "matrix": [
        100.0,
        0.0,
        0.0,
        0.0,
        0.0,
        -4.371139006309477e-06,
        -99.9999999999999,
        0.0,
        0.0,
        99.9999999999999,
        -4.371139006309477e-06,
        0.0,
        0.0,
        0.0,
        0.0,
        1.0
      ],
      "name": "Mesh_0"
    },
    {
      "mesh": 0,
      "name": "Mesh_0_modddif_material_0_0"
    },
    {
      "mesh": 1,
      "name": "Mesh_0_modddif_material_0_0"
    }
  ],
  "samplers": [
    {
      "magFilter": 9729,
      "minFilter": 9987,
      "wrapS": 10497,
      "wrapT": 10497
    }
  ],
  "scene": 0,
  "scenes": [
    {
      "name": "Sketchfab_Scene",
      "nodes": [
        0
      ]
    }
  ],
  "textures": [
    {
      "sampler": 0,
      "source": 0
    }
  ]
}
