{
  "accessors": [
    {
      "bufferView": 2,
      "componentType": 5126,
      "count": 1068,
      "max": [
        8.29504108428955,
        41.47520446777344,
        0.08324924111366272
      ],
      "min": [
        -8.29504108428955,
        -8.29504108428955,
        0.0
      ],
      "type": "VEC3"
    },
    {
      "bufferView": 2,
      "byteOffset": 12816,
      "componentType": 5126,
      "count": 1068,
      "max": [
        1.0,
        1.0,
        1.0
      ],
      "min": [
        -1.0,
        -1.0,
        -3.515749631333165e-05
      ],
      "type": "VEC3"
    },
    {
      "bufferView": 1,
      "componentType": 5126,
      "count": 1068,
      "max": [
        1.0,
        1.0
      ],
      "min": [
        0.0,
        0.0
      ],
      "type": "VEC2"
    },
    {
      "bufferView": 0,
      "componentType": 5125,
      "count": 2079,
      "type": "SCALAR"
    },
    {
      "bufferView": 2,
      "byteOffset": 25632,
      "componentType": 5126,
      "count": 216,
      "max": [
        1.0047798156738281,
        1.5591113567352295,
        0.8474482297897339
      ],
      "min": [
        -1.0,
        -1.659297227859497,
        -0.11078241467475891
      ],
      "type": "VEC3"
    },
    {
      "bufferView": 2,
      "byteOffset": 28224,
      "componentType": 5126,
      "count": 216,
      "max": [
        0.6842368841171265,
        0.6128619313240051,
        0.9792732000350952
      ],
      "min": [
        -0.5491229891777039,
        -0.7154875993728638,
        0.6542600393295288
      ],
      "type": "VEC3"
    },
    {
      "bufferView": 3,
      "componentType": 5126,
      "count": 216,
      "max": [
        1.0,
        0.6794342994689941,
        0.5455034971237183,
        1.0
      ],
      "min": [
        0.6325626969337463,
        -0.6869263648986816,
        -0.6851289868354797,
        1.0
      ],
      "type": "VEC4"
    },
    {
      "bufferView": 1,
      "byteOffset": 8544,
      "componentType": 5126,
      "count": 216,
      "max": [
        1.0,
        1.0
      ],
      "min": [
        0.0,
        0.0
      ],
      "type": "VEC2"
    },
    {
      "bufferView": 1,
      "byteOffset": 10272,
      "componentType": 5126,
      "count": 216,
      "max": [
        1.0,
        1.0
      ],
      "min": [
        0.0,
        0.0
      ],
      "type": "VEC2"
    },
    {
      "bufferView": 0,
      "byteOffset": 8316,
      "componentType": 5125,
      "count": 324,
      "type": "SCALAR"
    },
    {
      "bufferView": 2,
      "byteOffset": 30816,
      "componentType": 5126,
      "count": 35016,
      "max": [
        2.378256320953369,
        5.534693717956543,
        2.035978078842163
      ],
      "min": [
        -2.0847644805908203,
        0.0011032158508896828,
        -1.9816416501998901
      ],
      "type": "VEC3"
    },
    {
      "bufferView": 2,
      "byteOffset": 451008,
      "componentType": 5126,
      "count": 35016,
      "max": [
        0.9999998807907104,
        0.999999463558197,
        0.9999995231628418
      ],
      "min": [
        -1.0,
        -0.9999998807907104,
        -0.9999990463256836
      ],
      "type": "VEC3"
    },
    {
      "bufferView": 3,
      "byteOffset": 3456,
      "componentType": 5126,
      "count": 35016,
      "max": [
        0.9999991655349731,
        0.9999998807907104,
        0.9999997615814209,
        1.0
      ],
      "min": [
        -0.9999998807907104,
        -0.9999995231628418,
        -0.9999999403953552,
        -1.0
      ],
      "type": "VEC4"
    },
    {
      "bufferView": 1,
      "byteOffset": 12000,
      "componentType": 5126,
      "count": 35016,
      "max": [
        0.999584972858429,
        0.9996691942214966
      ],
      "min": [
        0.0004149999876972288,
        0.0004149999876972288
      ],
      "type": "VEC2"
    },
    {
      "bufferView": 1,
      "byteOffset": 292128,
      "componentType": 5126,
      "count": 35016,
      "max": [
        0.999584972858429,
        0.9996691942214966
      ],
      "min": [
        0.0004149999876972288,
        0.0004149999876972288
      ],
      "type": "VEC2"
    },
    {
      "bufferView": 1,
      "byteOffset": 572256,
      "componentType": 5126,
      "count": 35016,
      "max": [
        0.999584972858429,
        0.9996691942214966
      ],
      "min": [
        0.0004149999876972288,
        0.0004149999876972288
      ],
      "type": "VEC2"
    },
    {
      "bufferView": 0,
      "byteOffset": 9612,
      "componentType": 5125,
      "count": 35016,
      "type": "SCALAR"
    },
    {
      "bufferView": 2,
      "byteOffset": 871200,
      "componentType": 5126,
      "count": 24536,
      "max": [
        1.0159728527069092,
        1.8284382820129395,
        0.7870519757270813
      ],
      "min": [
        -1.1502046585083008,
        0.0017027246067300439,
        -0.6238458156585693
      ],
      "type": "VEC3"
    },
    {
      "bufferView": 2,
      "byteOffset": 1165632,
      "componentType": 5126,
      "count": 24536,
      "max": [
        0.9999993443489075,
        0.9999991059303284,
        0.9999994039535522
      ],
      "min": [
        -0.9999982714653015,
        -0.9999998211860657,
        -0.9999998211860657
      ],
      "type": "VEC3"
    },
    {
      "bufferView": 3,
      "byteOffset": 563712,
      "componentType": 5126,
      "count": 24536,
      "max": [
        1.0,
        1.0,
        0.9999998211860657,
        1.0
      ],
      "min": [
        -1.0,
        -0.999999463558197,
        -0.9999998807907104,
        -1.0
      ],
      "type": "VEC4"
    },
    {
      "bufferView": 1,
      "byteOffset": 852384,
      "componentType": 5126,
      "count": 24536,
      "max": [
        0.9995989799499512,
        0.9996010065078735
      ],
      "min": [
        0.00040099999750964344,
        0.00039900001138448715
      ],
      "type": "VEC2"
    },
    {
      "bufferView": 1,
      "byteOffset": 1048672,
      "componentType": 5126,
      "count": 24536,
      "max": [
        0.9995989799499512,
        0.9996010065078735
      ],
      "min": [
        0.00040099999750964344,
        0.00039900001138448715
      ],
      "type": "VEC2"
    },
    {
      "bufferView": 1,
      "byteOffset": 1244960,
      "componentType": 5126,
      "count": 24536,
      "max": [
        0.9995989799499512,
        0.9996010065078735
      ],
      "min": [
        0.00040099999750964344,
        0.00039900001138448715
      ],
      "type": "VEC2"
    },
    {
      "bufferView": 0,
      "byteOffset": 149676,
      "componentType": 5125,
      "count": 25830,
      "type": "SCALAR"
    },
    {
      "bufferView": 2,
      "byteOffset": 1460064,
      "componentType": 5126,
      "count": 29178,
      "max": [
        1.750900149345398,
        5.297167778015137,
        2.012237071990967
      ],
      "min": [
        -2.4640471935272217,
        -0.004519693553447723,
        -2.3616390228271484
      ],
      "type": "VEC3"
    },
    {
      "bufferView": 2,
      "byteOffset": 1810200,
      "componentType": 5126,
      "count": 29178,
      "max": [
        1.0,
        0.9999987483024597,
        0.9999971985816956
      ],
      "min": [
        -0.9999939203262329,
        -0.999999463558197,
        -0.9999995827674866
      ],
      "type": "VEC3"
    },
    {
      "bufferView": 3,
      "byteOffset": 956288,
      "componentType": 5126,
      "count": 29178,
      "max": [
        0.9999994039535522,
        0.9999994039535522,
        0.9999940395355225,
        1.0
      ],
      "min": [
        -0.9999987483024597,
        -0.9999800324440002,
        -0.9999943375587463,
        -1.0
      ],
      "type": "VEC4"
    },
    {
      "bufferView": 1,
      "byteOffset": 1441248,
      "componentType": 5126,
      "count": 29178,
      "max": [
        0.9995970129966736,
        0.9995970129966736
      ],
      "min": [
        0.0004030000127386302,
        0.0004030000127386302
      ],
      "type": "VEC2"
    },
    {
      "bufferView": 1,
      "byteOffset": 1674672,
      "componentType": 5126,
      "count": 29178,
      "max": [
        0.9995970129966736,
        0.9995970129966736
      ],
      "min": [
        0.0004030000127386302,
        0.0004030000127386302
      ],
      "type": "VEC2"
    },
    {
      "bufferView": 1,
      "byteOffset": 1908096,
      "componentType": 5126,
      "count": 29178,
      "max": [
        0.9995970129966736,
        0.9995970129966736
      ],
      "min": [
        0.0004030000127386302,
        0.0004030000127386302
      ],
      "type": "VEC2"
    },
    {
      "bufferView": 0,
      "byteOffset": 252996,
      "componentType": 5125,
      "count": 29994,
      "type": "SCALAR"
    },
    {
      "bufferView": 2,
      "byteOffset": 2160336,
      "componentType": 5126,
      "count": 47032,
      "max": [
        2.1319363117218018,
        2.3644373416900635,
        1.6312270164489746
      ],
      "min": [
        -2.048834800720215,
        -0.0001544650731375441,
        -1.6738314628601074
      ],
      "type": "VEC3"
    },
    {
      "bufferView": 2,
      "byteOffset": 2724720,
      "componentType": 5126,
      "count": 47032,
      "max": [
        0.9999999403953552,
        1.0,
        0.9999998807907104
      ],
      "min": [
        -0.9999997019767761,
        -1.0,
        -0.9999997615814209
      ],
      "type": "VEC3"
    },
    {
      "bufferView": 3,
      "byteOffset": 1423136,
      "componentType": 5126,
      "count": 47032,
      "max": [
        0.9999985694885254,
        0.9999999403953552,
        0.9999997019767761,
        1.0
      ],
      "min": [
        -1.0,
        -0.9999999403953552,
        -1.0,
        -1.0
      ],
      "type": "VEC4"
    },
    {
      "bufferView": 1,
      "byteOffset": 2141520,
      "componentType": 5126,
      "count": 47032,
      "max": [
        0.9996050596237183,
        0.9996060132980347
      ],
      "min": [
        0.00039500001003034413,
        0.00039400000241585076
      ],
      "type": "VEC2"
    },
    {
      "bufferView": 1,
      "byteOffset": 2517776,
      "componentType": 5126,
      "count": 47032,
      "max": [
        0.9996050596237183,
        0.9996060132980347
      ],
      "min": [
        0.00039500001003034413,
        0.00039400000241585076
      ],
      "type": "VEC2"
    },
    {
      "bufferView": 1,
      "byteOffset": 2894032,
      "componentType": 5126,
      "count": 47032,
      "max": [
        0.9996050596237183,
        0.9996060132980347
      ],
      "min": [
        0.00039500001003034413,
        0.00039400000241585076
      ],
      "type": "VEC2"
    },
    {
      "bufferView": 0,
      "byteOffset": 372972,
      "componentType": 5125,
      "count": 49224,
      "type": "SCALAR"
    },
    {
      "bufferView": 2,
      "byteOffset": 3289104,
      "componentType": 5126,
      "count": 38629,
      "max": [
        2.3149285316467285,
        9.539124488830566,
        3.2812023162841797
      ],
      "min": [
        -3.2713332176208496,
        0.0023995840456336737,
        -3.479763984680176
      ],
      "type": "VEC3"
    },
    {
      "bufferView": 2,
      "byteOffset": 3752652,
      "componentType": 5126,
      "count": 38629,
      "max": [
        0.9999950528144836,
        0.9999988675117493,
        0.9999897480010986
      ],
      "min": [
        -0.9999992251396179,
        -0.999995231628418,
        -0.9999997615814209
      ],
      "type": "VEC3"
    },
    {
      "bufferView": 3,
      "byteOffset": 2175648,
      "componentType": 5126,
      "count": 38629,
      "max": [
        0.9999991059303284,
        0.9999999403953552,
        0.9999998807907104,
        1.0
      ],
      "min": [
        -0.9999997615814209,
        -1.0,
        -1.0,
        -1.0
      ],
      "type": "VEC4"
    },
    {
      "bufferView": 1,
      "byteOffset": 3270288,
      "componentType": 5126,
      "count": 38629,
      "max": [
        0.9996611475944519,
        0.9996461272239685
      ],
      "min": [
        0.00034100000630132854,
        0.00034100000630132854
      ],
      "type": "VEC2"
    },
    {
      "bufferView": 1,
      "byteOffset": 3579320,
      "componentType": 5126,
      "count": 38629,
      "max": [
        0.9996611475944519,
        0.9996461272239685
      ],
      "min": [
        0.00034100000630132854,
        0.00034100000630132854
      ],
      "type": "VEC2"
    },
    {
      "bufferView": 1,
      "byteOffset": 3888352,
      "componentType": 5126,
      "count": 38629,
      "max": [
        0.9996611475944519,
        0.9996461272239685
      ],
      "min": [
        0.00034100000630132854,
        0.00034100000630132854
      ],
      "type": "VEC2"
    },
    {
      "bufferView": 0,
      "byteOffset": 569868,
      "componentType": 5125,
      "count": 87096,
      "type": "SCALAR"
    },
    {
      "bufferView": 2,
      "byteOffset": 4216200,
      "componentType": 5126,
      "count": 39932,
      "max": [
        1.2113685607910156,
        1.4362577199935913,
        1.6413488388061523
      ],
      "min": [
        -1.1923973560333252,
        0.0,
        -1.8445188999176025
      ],
      "type": "VEC3"
    },
    {
      "bufferView": 2,
      "byteOffset": 4695384,
      "componentType": 5126,
      "count": 39932,
      "max": [
        1.0,
        1.0,
        0.9999999403953552
      ],
      "min": [
        -1.0,
        -1.0,
        -1.0
      ],
      "type": "VEC3"
    },
    {
      "bufferView": 3,
      "byteOffset": 2793712,
      "componentType": 5126,
      "count": 39932,
      "max": [
        0.9999997019767761,
        1.0,
        1.0,
        1.0
      ],
      "min": [
        -1.0,
        -1.0,
        -1.0,
        -1.0
      ],
      "type": "VEC4"
    },
    {
      "bufferView": 1,
      "byteOffset": 4197384,
      "componentType": 5126,
      "count": 39932,
      "max": [
        0.9995890259742737,
        0.9995869994163513
      ],
      "min": [
        0.00041099998634308577,
        0.0004130000015720725
      ],
      "type": "VEC2"
    },
    {
      "bufferView": 1,
      "byteOffset": 4516840,
      "componentType": 5126,
      "count": 39932,
      "max": [
        0.9995890259742737,
        0.9995869994163513
      ],
      "min": [
        0.00041099998634308577,
        0.0004130000015720725
      ],
      "type": "VEC2"
    },
    {
      "bufferView": 1,
      "byteOffset": 4836296,
      "componentType": 5126,
      "count": 39932,
      "max": [
        0.9995890259742737,
        0.9995869994163513
      ],
      "min": [
        0.00041099998634308577,
        0.0004130000015720725
      ],
      "type": "VEC2"
    },
    {
      "bufferView": 0,
      "byteOffset": 918252,
      "componentType": 5125,
      "count": 149682,
      "type": "SCALAR"
    },
    {
      "bufferView": 2,
      "byteOffset": 5174568,
      "componentType": 5126,
      "count": 38629,
      "max": [
        2.7462410926818848,
        11.316433906555176,
        3.8925490379333496
      ],
      "min": [
        -3.880841016769409,
        0.00284666963852942,
        -4.128106117248535
      ],
      "type": "VEC3"
    },
    {
      "bufferView": 2,
      "byteOffset": 5638116,
      "componentType": 5126,
      "count": 38629,
      "max": [
        0.9999950528144836,
        0.9999988675117493,
        0.9999898076057434
      ],
      "min": [
        -0.9999992251396179,
        -0.999995231628418,
        -0.9999997615814209
      ],
      "type": "VEC3"
    },
    {
      "bufferView": 3,
      "byteOffset": 3432624,
      "componentType": 5126,
      "count": 38629,
      "max": [
        0.9999990463256836,
        0.9999998807907104,
        0.9999999403953552,
        1.0
      ],
      "min": [
        -0.9999997615814209,
        -1.0,
        -1.0,
        -1.0
      ],
      "type": "VEC4"
    },
    {
      "bufferView": 1,
      "byteOffset": 5155752,
      "componentType": 5126,
      "count": 38629,
      "max": [
        0.9996611475944519,
        0.9996461272239685
      ],
      "min": [
        0.00034100000630132854,
        0.00034100000630132854
      ],
      "type": "VEC2"
    },
    {
      "bufferView": 1,
      "byteOffset": 5464784,
      "componentType": 5126,
      "count": 38629,
      "max": [
        0.9996611475944519,
        0.9996461272239685
      ],
      "min": [
        0.00034100000630132854,
        0.00034100000630132854
      ],
      "type": "VEC2"
    },
    {
      "bufferView": 1,
      "byteOffset": 5773816,
      "componentType": 5126,
      "count": 38629,
      "max": [
        0.9996611475944519,
        0.9996461272239685
      ],
      "min": [
        0.00034100000630132854,
        0.00034100000630132854
      ],
      "type": "VEC2"
    },
    {
      "bufferView": 0,
      "byteOffset": 1516980,
      "componentType": 5125,
      "count": 87096,
      "type": "SCALAR"
    },
    {
      "bufferView": 2,
      "byteOffset": 6101664,
      "componentType": 5126,
      "count": 35016,
      "max": [
        2.378256320953369,
        5.534693717956543,
        2.035978078842163
      ],
      "min": [
        -2.0847644805908203,
        0.0011032158508896828,
        -1.9816416501998901
      ],
      "type": "VEC3"
    },
    {
      "bufferView": 2,
      "byteOffset": 6521856,
      "componentType": 5126,
      "count": 35016,
      "max": [
        0.9999998807907104,
        0.999999463558197,
        0.9999995231628418
      ],
      "min": [
        -1.0,
        -0.9999998807907104,
        -0.9999990463256836
      ],
      "type": "VEC3"
    },
    {
      "bufferView": 3,
      "byteOffset": 4050688,
      "componentType": 5126,
      "count": 35016,
      "max": [
        0.9999991655349731,
        0.9999998807907104,
        0.9999997615814209,
        1.0
      ],
      "min": [
        -0.9999998807907104,
        -0.9999995231628418,
        -0.9999999403953552,
        -1.0
      ],
      "type": "VEC4"
    },
    {
      "bufferView": 1,
      "byteOffset": 6082848,
      "componentType": 5126,
      "count": 35016,
      "max": [
        0.999584972858429,
        0.9996691942214966
      ],
      "min": [
        0.0004149999876972288,
        0.0004149999876972288
      ],
      "type": "VEC2"
    },
    {
      "bufferView": 1,
      "byteOffset": 6362976,
      "componentType": 5126,
      "count": 35016,
      "max": [
        0.999584972858429,
        0.9996691942214966
      ],
      "min": [
        0.0004149999876972288,
        0.0004149999876972288
      ],
      "type": "VEC2"
    },
    {
      "bufferView": 1,
      "byteOffset": 6643104,
      "componentType": 5126,
      "count": 35016,
      "max": [
        0.999584972858429,
        0.9996691942214966
      ],
      "min": [
        0.0004149999876972288,
        0.0004149999876972288
      ],
      "type": "VEC2"
    },
    {
      "bufferView": 0,
      "byteOffset": 1865364,
      "componentType": 5125,
      "count": 35016,
      "type": "SCALAR"
    },
    {
      "bufferView": 2,
      "byteOffset": 6942048,
      "componentType": 5126,
      "count": 30358,
      "max": [
        1.957209825515747,
        6.833019256591797,
        1.2713093757629395
      ],
      "min": [
        -1.7762260437011719,
        -0.0030071630608290434,
        -1.4570393562316895
      ],
      "type": "VEC3"
    },
    {
      "bufferView": 2,
      "byteOffset": 7306344,
      "componentType": 5126,
      "count": 30358,
      "max": [
        1.0,
        1.0,
        1.0
      ],
      "min": [
        -1.0,
        -1.0,
        -1.0
      ],
      "type": "VEC3"
    },
    {
      "bufferView": 3,
      "byteOffset": 4610944,
      "componentType": 5126,
      "count": 30358,
      "max": [
        1.0,
        1.0,
        0.9999999403953552,
        1.0
      ],
      "min": [
        -1.0,
        -1.0,
        -1.0,
        -1.0
      ],
      "type": "VEC4"
    },
    {
      "bufferView": 1,
      "byteOffset": 6923232,
      "componentType": 5126,
      "count": 30358,
      "max": [
        0.9996089935302734,
        0.9996100068092346
      ],
      "min": [
        0.0003910000086762011,
        0.00039000000106170774
      ],
      "type": "VEC2"
    },
    {
      "bufferView": 1,
      "byteOffset": 7166096,
      "componentType": 5126,
      "count": 30358,
      "max": [
        0.9996089935302734,
        0.9996100068092346
      ],
      "min": [
        0.0003910000086762011,
        0.00039000000106170774
      ],
      "type": "VEC2"
    },
    {
      "bufferView": 1,
      "byteOffset": 7408960,
      "componentType": 5126,
      "count": 30358,
      "max": [
        0.9996089935302734,
        0.9996100068092346
      ],
      "min": [
        0.0003910000086762011,
        0.00039000000106170774
      ],
      "type": "VEC2"
    },
    {
      "bufferView": 0,
      "byteOffset": 2005428,
      "componentType": 5125,
      "count": 31638,
      "type": "SCALAR"
    },
    {
      "bufferView": 2,
      "byteOffset": 7670640,
      "componentType": 5126,
      "count": 30358,
      "max": [
        1.957209825515747,
        6.833019256591797,
        1.2713093757629395
      ],
      "min": [
        -1.7762260437011719,
        -0.0030071630608290434,
        -1.4570393562316895
      ],
      "type": "VEC3"
    },
    {
      "bufferView": 2,
      "byteOffset": 8034936,
      "componentType": 5126,
      "count": 30358,
      "max": [
        1.0,
        1.0,
        1.0
      ],
      "min": [
        -1.0,
        -1.0,
        -1.0
      ],
      "type": "VEC3"
    },
    {
      "bufferView": 3,
      "byteOffset": 5096672,
      "componentType": 5126,
      "count": 30358,
      "max": [
        1.0,
        1.0,
        0.9999999403953552,
        1.0
      ],
      "min": [
        -1.0,
        -1.0,
        -1.0,
        -1.0
      ],
      "type": "VEC4"
    },
    {
      "bufferView": 1,
      "byteOffset": 7651824,
      "componentType": 5126,
      "count": 30358,
      "max": [
        0.9996089935302734,
        0.9996100068092346
      ],
      "min": [
        0.0003910000086762011,
        0.00039000000106170774
      ],
      "type": "VEC2"
    },
    {
      "bufferView": 1,
      "byteOffset": 7894688,
      "componentType": 5126,
      "count": 30358,
      "max": [
        0.9996089935302734,
        0.9996100068092346
      ],
      "min": [
        0.0003910000086762011,
        0.00039000000106170774
      ],
      "type": "VEC2"
    },
    {
      "bufferView": 1,
      "byteOffset": 8137552,
      "componentType": 5126,
      "count": 30358,
      "max": [
        0.9996089935302734,
        0.9996100068092346
      ],
      "min": [
        0.0003910000086762011,
        0.00039000000106170774
      ],
      "type": "VEC2"
    },
    {
      "bufferView": 0,
      "byteOffset": 2131980,
      "componentType": 5125,
      "count": 31638,
      "type": "SCALAR"
    },
    {
      "bufferView": 2,
      "byteOffset": 8399232,
      "componentType": 5126,
      "count": 39932,
      "max": [
        1.2113685607910156,
        1.4362577199935913,
        1.6413488388061523
      ],
      "min": [
        -1.1923973560333252,
        0.0,
        -1.8445188999176025
      ],
      "type": "VEC3"
    },
    {
      "bufferView": 2,
      "byteOffset": 8878416,
      "componentType": 5126,
      "count": 39932,
      "max": [
        1.0,
        1.0,
        0.9999999403953552
      ],
      "min": [
        -1.0,
        -1.0,
        -1.0
      ],
      "type": "VEC3"
    },
    {
      "bufferView": 3,
      "byteOffset": 5582400,
      "componentType": 5126,
      "count": 39932,
      "max": [
        0.9999997019767761,
        1.0,
        1.0,
        1.0
      ],
      "min": [
        -1.0,
        -1.0,
        -1.0,
        -1.0
      ],
      "type": "VEC4"
    },
    {
      "bufferView": 1,
      "byteOffset": 8380416,
      "componentType": 5126,
      "count": 39932,
      "max": [
        0.9995890259742737,
        0.9995869994163513
      ],
      "min": [
        0.00041099998634308577,
        0.0004130000015720725
      ],
      "type": "VEC2"
    },
    {
      "bufferView": 1,
      "byteOffset": 8699872,
      "componentType": 5126,
      "count": 39932,
      "max": [
        0.9995890259742737,
        0.9995869994163513
      ],
      "min": [
        0.00041099998634308577,
        0.0004130000015720725
      ],
      "type": "VEC2"
    },
    {
      "bufferView": 1,
      "byteOffset": 9019328,
      "componentType": 5126,
      "count": 39932,
      "max": [
        0.9995890259742737,
        0.9995869994163513
      ],
      "min": [
        0.00041099998634308577,
        0.0004130000015720725
      ],
      "type": "VEC2"
    },
    {
      "bufferView": 0,
      "byteOffset": 2258532,
      "componentType": 5125,
      "count": 149682,
      "type": "SCALAR"
    },
    {
      "bufferView": 2,
      "byteOffset": 9357600,
      "componentType": 5126,
      "count": 23312,
      "max": [
        2.2562036514282227,
        6.362817287445068,
        1.2115529775619507
      ],
      "min": [
        -2.2030868530273438,
        0.0011310509871691465,
        -1.3532994985580444
      ],
      "type": "VEC3"
    },
    {
      "bufferView": 2,
      "byteOffset": 9637344,
      "componentType": 5126,
      "count": 23312,
      "max": [
        0.9999999403953552,
        1.0,
        0.9999999403953552
      ],
      "min": [
        -0.9999996423721313,
        -1.0,
        -1.0
      ],
      "type": "VEC3"
    },
    {
      "bufferView": 3,
      "byteOffset": 6221312,
      "componentType": 5126,
      "count": 23312,
      "max": [
        1.0,
        0.9999999403953552,
        1.0,
        1.0
      ],
      "min": [
        -1.0,
        -0.9999995231628418,
        -0.999999463558197,
        -1.0
      ],
      "type": "VEC4"
    },
    {
      "bufferView": 1,
      "byteOffset": 9338784,
      "componentType": 5126,
      "count": 23312,
      "max": [
        0.9995920062065125,
        0.9998485445976257
      ],
      "min": [
        0.0004070000140927732,
        -2.5580578949302435e-05
      ],
      "type": "VEC2"
    },
    {
      "bufferView": 1,
      "byteOffset": 9525280,
      "componentType": 5126,
      "count": 23312,
      "max": [
        0.9995920062065125,
        0.9998485445976257
      ],
      "min": [
        0.0004070000140927732,
        -2.5580578949302435e-05
      ],
      "type": "VEC2"
    },
    {
      "bufferView": 1,
      "byteOffset": 9711776,
      "componentType": 5126,
      "count": 23312,
      "max": [
        0.9995920062065125,
        0.9998485445976257
      ],
      "min": [
        0.0004070000140927732,
        -2.5580578949302435e-05
      ],
      "type": "VEC2"
    },
    {
      "bufferView": 0,
      "byteOffset": 2857260,
      "componentType": 5125,
      "count": 25944,
      "type": "SCALAR"
    },
    {
      "bufferView": 2,
      "byteOffset": 9917088,
      "componentType": 5126,
      "count": 23312,
      "max": [
        2.2562036514282227,
        6.362817287445068,
        1.2115529775619507
      ],
      "min": [
        -2.2030868530273438,
        0.0011310509871691465,
        -1.3532994985580444
      ],
      "type": "VEC3"
    },
    {
      "bufferView": 2,
      "byteOffset": 10196832,
      "componentType": 5126,
      "count": 23312,
      "max": [
        0.9999999403953552,
        1.0,
        0.9999999403953552
      ],
      "min": [
        -0.9999996423721313,
        -1.0,
        -1.0
      ],
      "type": "VEC3"
    },
    {
      "bufferView": 3,
      "byteOffset": 6594304,
      "componentType": 5126,
      "count": 23312,
      "max": [
        1.0,
        0.9999999403953552,
        1.0,
        1.0
      ],
      "min": [
        -1.0,
        -0.9999995231628418,
        -0.999999463558197,
        -1.0
      ],
      "type": "VEC4"
    },
    {
      "bufferView": 1,
      "byteOffset": 9898272,
      "componentType": 5126,
      "count": 23312,
      "max": [
        0.9995920062065125,
        0.9998485445976257
      ],
      "min": [
        0.0004070000140927732,
        -2.5580578949302435e-05
      ],
      "type": "VEC2"
    },
    {
      "bufferView": 1,
      "byteOffset": 10084768,
      "componentType": 5126,
      "count": 23312,
      "max": [
        0.9995920062065125,
        0.9998485445976257
      ],
      "min": [
        0.0004070000140927732,
        -2.5580578949302435e-05
      ],
      "type": "VEC2"
    },
    {
      "bufferView": 1,
      "byteOffset": 10271264,
      "componentType": 5126,
      "count": 23312,
      "max": [
        0.9995920062065125,
        0.9998485445976257
      ],
      "min": [
        0.0004070000140927732,
        -2.5580578949302435e-05
      ],
      "type": "VEC2"
    },
    {
      "bufferView": 0,
      "byteOffset": 2961036,
      "componentType": 5125,
      "count": 25944,
      "type": "SCALAR"
    },
    {
      "bufferView": 2,
      "byteOffset": 10476576,
      "componentType": 5126,
      "count": 37115,
      "max": [
        3.7391488552093506,
        3.8202483654022217,
        2.96444034576416
      ],
      "min": [
        -3.701791524887085,
        0.0018959959270432591,
        -4.256781101226807
      ],
      "type": "VEC3"
    },
    {
      "bufferView": 2,
      "byteOffset": 10921956,
      "componentType": 5126,
      "count": 37115,
      "max": [
        0.9999998807907104,
        0.9999929666519165,
        0.9999940991401672
      ],
      "min": [
        -0.9999989867210388,
        -0.9999996423721313,
        -0.9999977350234985
      ],
      "type": "VEC3"
    },
    {
      "bufferView": 3,
      "byteOffset": 6967296,
      "componentType": 5126,
      "count": 37115,
      "max": [
        0.9999995231628418,
        1.0,
        0.9999997615814209,
        1.0
      ],
      "min": [
        -0.9999940395355225,
        -0.9999990463256836,
        -0.9999990463256836,
        -1.0
      ],
      "type": "VEC4"
    },
    {
      "bufferView": 1,
      "byteOffset": 10457760,
      "componentType": 5126,
      "count": 37115,
      "max": [
        0.9996119737625122,
        0.9996119737625122
      ],
      "min": [
        0.00036117120180279016,
        0.000387999985832721
      ],
      "type": "VEC2"
    },
    {
      "bufferView": 1,
      "byteOffset": 10754680,
      "componentType": 5126,
      "count": 37115,
      "max": [
        0.9996119737625122,
        0.9996119737625122
      ],
      "min": [
        0.00036117120180279016,
        0.000387999985832721
      ],
      "type": "VEC2"
    },
    {
      "bufferView": 1,
      "byteOffset": 11051600,
      "componentType": 5126,
      "count": 37115,
      "max": [
        0.9996119737625122,
        0.9996119737625122
      ],
      "min": [
        0.00036117120180279016,
        0.000387999985832721
      ],
      "type": "VEC2"
    },
    {
      "bufferView": 0,
      "byteOffset": 3064812,
      "componentType": 5125,
      "count": 83934,
      "type": "SCALAR"
    },
    {
      "bufferView": 2,
      "byteOffset": 11367336,
      "componentType": 5126,
      "count": 30358,
      "max": [
        1.957209825515747,
        6.833019256591797,
        1.2713093757629395
      ],
      "min": [
        -1.7762260437011719,
        -0.0030071630608290434,
        -1.4570393562316895
      ],
      "type": "VEC3"
    },
    {
      "bufferView": 2,
      "byteOffset": 11731632,
      "componentType": 5126,
      "count": 30358,
      "max": [
        1.0,
        1.0,
        1.0
      ],
      "min": [
        -1.0,
        -1.0,
        -1.0
      ],
      "type": "VEC3"
    },
    {
      "bufferView": 3,
      "byteOffset": 7561136,
      "componentType": 5126,
      "count": 30358,
      "max": [
        1.0,
        1.0,
        0.9999999403953552,
        1.0
      ],
      "min": [
        -1.0,
        -1.0,
        -1.0,
        -1.0
      ],
      "type": "VEC4"
    },
    {
      "bufferView": 1,
      "byteOffset": 11348520,
      "componentType": 5126,
      "count": 30358,
      "max": [
        0.9996089935302734,
        0.9996100068092346
      ],
      "min": [
        0.0003910000086762011,
        0.00039000000106170774
      ],
      "type": "VEC2"
    },
    {
      "bufferView": 1,
      "byteOffset": 11591384,
      "componentType": 5126,
      "count": 30358,
      "max": [
        0.9996089935302734,
        0.9996100068092346
      ],
      "min": [
        0.0003910000086762011,
        0.00039000000106170774
      ],
      "type": "VEC2"
    },
    {
      "bufferView": 1,
      "byteOffset": 11834248,
      "componentType": 5126,
      "count": 30358,
      "max": [
        0.9996089935302734,
        0.9996100068092346
      ],
      "min": [
        0.0003910000086762011,
        0.00039000000106170774
      ],
      "type": "VEC2"
    },
    {
      "bufferView": 0,
      "byteOffset": 3400548,
      "componentType": 5125,
      "count": 31638,
      "type": "SCALAR"
    },
    {
      "bufferView": 2,
      "byteOffset": 12095928,
      "componentType": 5126,
      "count": 17595,
      "max": [
        4.770145416259766,
        1.8506132364273071,
        -1.8775205612182617
      ],
      "min": [
        -1.3563984632492065,
        0.00614566495642066,
        -18.098630905151367
      ],
      "type": "VEC3"
    },
    {
      "bufferView": 2,
      "byteOffset": 12307068,
      "componentType": 5126,
      "count": 17595,
      "max": [
        0.9999999403953552,
        0.9999999403953552,
        1.0
      ],
      "min": [
        -0.9999997019767761,
        -1.0,
        -0.9999997615814209
      ],
      "type": "VEC3"
    },
    {
      "bufferView": 3,
      "byteOffset": 8046864,
      "componentType": 5126,
      "count": 17595,
      "max": [
        0.9999999403953552,
        0.9999999403953552,
        1.0,
        1.0
      ],
      "min": [
        -0.9999998211860657,
        -1.0,
        -0.9999998211860657,
        -1.0
      ],
      "type": "VEC4"
    },
    {
      "bufferView": 1,
      "byteOffset": 12077112,
      "componentType": 5126,
      "count": 17595,
      "max": [
        0.999547004699707,
        0.9993870854377747
      ],
      "min": [
        0.0004529999860096723,
        0.0004490000137593597
      ],
      "type": "VEC2"
    },
    {
      "bufferView": 1,
      "byteOffset": 12217872,
      "componentType": 5126,
      "count": 17595,
      "max": [
        0.999547004699707,
        0.9993870854377747
      ],
      "min": [
        0.0004529999860096723,
        0.0004490000137593597
      ],
      "type": "VEC2"
    },
    {
      "bufferView": 1,
      "byteOffset": 12358632,
      "componentType": 5126,
      "count": 17595,
      "max": [
        0.999547004699707,
        0.9993870854377747
      ],
      "min": [
        0.0004529999860096723,
        0.0004490000137593597
      ],
      "type": "VEC2"
    },
    {
      "bufferView": 0,
      "byteOffset": 3527100,
      "componentType": 5125,
      "count": 19494,
      "type": "SCALAR"
    },
    {
      "bufferView": 2,
      "byteOffset": 12518208,
      "componentType": 5126,
      "count": 29178,
      "max": [
        2.0433332920074463,
        6.181893825531006,
        2.348318099975586
      ],
      "min": [
        -2.87558913230896,
        -0.005274566821753979,
        -2.7560768127441406
      ],
      "type": "VEC3"
    },
    {
      "bufferView": 2,
      "byteOffset": 12868344,
      "componentType": 5126,
      "count": 29178,
      "max": [
        1.0,
        0.9999987483024597,
        0.9999971985816956
      ],
      "min": [
        -0.9999939203262329,
        -0.9999995231628418,
        -0.9999996423721313
      ],
      "type": "VEC3"
    },
    {
      "bufferView": 3,
      "byteOffset": 8328384,
      "componentType": 5126,
      "count": 29178,
      "max": [
        0.9999994039535522,
        0.999999463558197,
        0.9999940395355225,
        1.0
      ],
      "min": [
        -0.9999986886978149,
        -0.9999799728393555,
        -0.9999943971633911,
        -1.0
      ],
      "type": "VEC4"
    },
    {
      "bufferView": 1,
      "byteOffset": 12499392,
      "componentType": 5126,
      "count": 29178,
      "max": [
        0.9995970129966736,
        0.9995970129966736
      ],
      "min": [
        0.0004030000127386302,
        0.0004030000127386302
      ],
      "type": "VEC2"
    },
    {
      "bufferView": 1,
      "byteOffset": 12732816,
      "componentType": 5126,
      "count": 29178,
      "max": [
        0.9995970129966736,
        0.9995970129966736
      ],
      "min": [
        0.0004030000127386302,
        0.0004030000127386302
      ],
      "type": "VEC2"
    },
    {
      "bufferView": 1,
      "byteOffset": 12966240,
      "componentType": 5126,
      "count": 29178,
      "max": [
        0.9995970129966736,
        0.9995970129966736
      ],
      "min": [
        0.0004030000127386302,
        0.0004030000127386302
      ],
      "type": "VEC2"
    },
    {
      "bufferView": 0,
      "byteOffset": 3605076,
      "componentType": 5125,
      "count": 29994,
      "type": "SCALAR"
    },
    {
      "bufferView": 2,
      "byteOffset": 13218480,
      "componentType": 5126,
      "count": 37115,
      "max": [
        3.7391488552093506,
        3.8202483654022217,
        2.96444034576416
      ],
      "min": [
        -3.701791524887085,
        0.0018959959270432591,
        -4.256781101226807
      ],
      "type": "VEC3"
    },
    {
      "bufferView": 2,
      "byteOffset": 13663860,
      "componentType": 5126,
      "count": 37115,
      "max": [
        0.9999998807907104,
        0.9999929666519165,
        0.9999940991401672
      ],
      "min": [
        -0.9999989867210388,
        -0.9999996423721313,
        -0.9999977350234985
      ],
      "type": "VEC3"
    },
    {
      "bufferView": 3,
      "byteOffset": 8795232,
      "componentType": 5126,
      "count": 37115,
      "max": [
        0.9999995231628418,
        1.0,
        0.9999997615814209,
        1.0
      ],
      "min": [
        -0.9999940395355225,
        -0.9999990463256836,
        -0.9999990463256836,
        -1.0
      ],
      "type": "VEC4"
    },
    {
      "bufferView": 1,
      "byteOffset": 13199664,
      "componentType": 5126,
      "count": 37115,
      "max": [
        0.9996119737625122,
        0.9996119737625122
      ],
      "min": [
        0.00036117120180279016,
        0.000387999985832721
      ],
      "type": "VEC2"
    },
    {
      "bufferView": 1,
      "byteOffset": 13496584,
      "componentType": 5126,
      "count": 37115,
      "max": [
        0.9996119737625122,
        0.9996119737625122
      ],
      "min": [
        0.00036117120180279016,
        0.000387999985832721
      ],
      "type": "VEC2"
    },
    {
      "bufferView": 1,
      "byteOffset": 13793504,
      "componentType": 5126,
      "count": 37115,
      "max": [
        0.9996119737625122,
        0.9996119737625122
      ],
      "min": [
        0.00036117120180279016,
        0.000387999985832721
      ],
      "type": "VEC2"
    },
    {
      "bufferView": 0,
      "byteOffset": 3725052,
      "componentType": 5125,
      "count": 83934,
      "type": "SCALAR"
    },
    {
      "bufferView": 2,
      "byteOffset": 14109240,
      "componentType": 5126,
      "count": 23312,
      "max": [
        2.2562036514282227,
        6.362817287445068,
        1.2115529775619507
      ],
      "min": [
        -2.2030868530273438,
        0.0011310509871691465,
        -1.3532994985580444
      ],
      "type": "VEC3"
    },
    {
      "bufferView": 2,
      "byteOffset": 14388984,
      "componentType": 5126,
      "count": 23312,
      "max": [
        0.9999999403953552,
        1.0,
        0.9999999403953552
      ],
      "min": [
        -0.9999996423721313,
        -1.0,
        -1.0
      ],
      "type": "VEC3"
    },
    {
      "bufferView": 3,
      "byteOffset": 9389072,
      "componentType": 5126,
      "count": 23312,
      "max": [
        1.0,
        0.9999999403953552,
        1.0,
        1.0
      ],
      "min": [
        -1.0,
        -0.9999995231628418,
        -0.999999463558197,
        -1.0
      ],
      "type": "VEC4"
    },
    {
      "bufferView": 1,
      "byteOffset": 14090424,
      "componentType": 5126,
      "count": 23312,
      "max": [
        0.9995920062065125,
        0.9998485445976257
      ],
      "min": [
        0.0004070000140927732,
        -2.5580578949302435e-05
      ],
      "type": "VEC2"
    },
    {
      "bufferView": 1,
      "byteOffset": 14276920,
      "componentType": 5126,
      "count": 23312,
      "max": [
        0.9995920062065125,
        0.9998485445976257
      ],
      "min": [
        0.0004070000140927732,
        -2.5580578949302435e-05
      ],
      "type": "VEC2"
    },
    {
      "bufferView": 1,
      "byteOffset": 14463416,
      "componentType": 5126,
      "count": 23312,
      "max": [
        0.9995920062065125,
        0.9998485445976257
      ],
      "min": [
        0.0004070000140927732,
        -2.5580578949302435e-05
      ],
      "type": "VEC2"
    },
    {
      "bufferView": 0,
      "byteOffset": 4060788,
      "componentType": 5125,
      "count": 25944,
      "type": "SCALAR"
    },
    {
      "bufferView": 2,
      "byteOffset": 14668728,
      "componentType": 5126,
      "count": 30358,
      "max": [
        1.957209825515747,
        6.833019256591797,
        1.2713093757629395
      ],
      "min": [
        -1.7762260437011719,
        -0.0030071630608290434,
        -1.4570393562316895
      ],
      "type": "VEC3"
    },
    {
      "bufferView": 2,
      "byteOffset": 15033024,
      "componentType": 5126,
      "count": 30358,
      "max": [
        1.0,
        1.0,
        1.0
      ],
      "min": [
        -1.0,
        -1.0,
        -1.0
      ],
      "type": "VEC3"
    },
    {
      "bufferView": 3,
      "byteOffset": 9762064,
      "componentType": 5126,
      "count": 30358,
      "max": [
        1.0,
        1.0,
        0.9999999403953552,
        1.0
      ],
      "min": [
        -1.0,
        -1.0,
        -1.0,
        -1.0
      ],
      "type": "VEC4"
    },
    {
      "bufferView": 1,
      "byteOffset": 14649912,
      "componentType": 5126,
      "count": 30358,
      "max": [
        0.9996089935302734,
        0.9996100068092346
      ],
      "min": [
        0.0003910000086762011,
        0.00039000000106170774
      ],
      "type": "VEC2"
    },
    {
      "bufferView": 1,
      "byteOffset": 14892776,
      "componentType": 5126,
      "count": 30358,
      "max": [
        0.9996089935302734,
        0.9996100068092346
      ],
      "min": [
        0.0003910000086762011,
        0.00039000000106170774
      ],
      "type": "VEC2"
    },
    {
      "bufferView": 1,
      "byteOffset": 15135640,
      "componentType": 5126,
      "count": 30358,
      "max": [
        0.9996089935302734,
        0.9996100068092346
      ],
      "min": [
        0.0003910000086762011,
        0.00039000000106170774
      ],
      "type": "VEC2"
    },
    {
      "bufferView": 0,
      "byteOffset": 4164564,
      "componentType": 5125,
      "count": 31638,
      "type": "SCALAR"
    },
    {
      "bufferView": 2,
      "byteOffset": 15397320,
      "componentType": 5126,
      "count": 39932,
      "max": [
        1.2113685607910156,
        1.4362577199935913,
        1.6413488388061523
      ],
      "min": [
        -1.1923973560333252,
        0.0,
        -1.8445188999176025
      ],
      "type": "VEC3"
    },
    {
      "bufferView": 2,
      "byteOffset": 15876504,
      "componentType": 5126,
      "count": 39932,
      "max": [
        1.0,
        1.0,
        0.9999999403953552
      ],
      "min": [
        -1.0,
        -1.0,
        -1.0
      ],
      "type": "VEC3"
    },
    {
      "bufferView": 3,
      "byteOffset": 10247792,
      "componentType": 5126,
      "count": 39932,
      "max": [
        0.9999997019767761,
        1.0,
        1.0,
        1.0
      ],
      "min": [
        -1.0,
        -1.0,
        -1.0,
        -1.0
      ],
      "type": "VEC4"
    },
    {
      "bufferView": 1,
      "byteOffset": 15378504,
      "componentType": 5126,
      "count": 39932,
      "max": [
        0.9995890259742737,
        0.9995869994163513
      ],
      "min": [
        0.00041099998634308577,
        0.0004130000015720725
      ],
      "type": "VEC2"
    },
    {
      "bufferView": 1,
      "byteOffset": 15697960,
      "componentType": 5126,
      "count": 39932,
      "max": [
        0.9995890259742737,
        0.9995869994163513
      ],
      "min": [
        0.00041099998634308577,
        0.0004130000015720725
      ],
      "type": "VEC2"
    },
    {
      "bufferView": 1,
      "byteOffset": 16017416,
      "componentType": 5126,
      "count": 39932,
      "max": [
        0.9995890259742737,
        0.9995869994163513
      ],
      "min": [
        0.00041099998634308577,
        0.0004130000015720725
      ],
      "type": "VEC2"
    },
    {
      "bufferView": 0,
      "byteOffset": 4291116,
      "componentType": 5125,
      "count": 149682,
      "type": "SCALAR"
    },
    {
      "bufferView": 2,
      "byteOffset": 16355688,
      "componentType": 5126,
      "count": 9256,
      "max": [
        0.383568674325943,
        0.25366103649139404,
        0.2635858356952667
      ],
      "min": [
        -0.359592080116272,
        -0.00019121418881695718,
        -0.16702820360660553
      ],
      "type": "VEC3"
    },
    {
      "bufferView": 2,
      "byteOffset": 16466760,
      "componentType": 5126,
      "count": 9256,
      "max": [
        0.999983549118042,
        0.9999989867210388,
        0.9999991059303284
      ],
      "min": [
        -0.9999746680259705,
        -0.9999957084655762,
        -0.9999855160713196
      ],
      "type": "VEC3"
    },
    {
      "bufferView": 3,
      "byteOffset": 10886704,
      "componentType": 5126,
      "count": 9256,
      "max": [
        0.9999997019767761,
        0.999993622303009,
        0.9999994039535522,
        1.0
      ],
      "min": [
        -0.9999984502792358,
        -0.9999673366546631,
        -0.9999977946281433,
        -1.0
      ],
      "type": "VEC4"
    },
    {
      "bufferView": 1,
      "byteOffset": 16336872,
      "componentType": 5126,
      "count": 9256,
      "max": [
        0.9996070265769958,
        0.9996070265769958
      ],
      "min": [
        0.0003929999948013574,
        0.0003929999948013574
      ],
      "type": "VEC2"
    },
    {
      "bufferView": 1,
      "byteOffset": 16410920,
      "componentType": 5126,
      "count": 9256,
      "max": [
        0.9996070265769958,
        0.9996070265769958
      ],
      "min": [
        0.0003929999948013574,
        0.0003929999948013574
      ],
      "type": "VEC2"
    },
    {
      "bufferView": 1,
      "byteOffset": 16484968,
      "componentType": 5126,
      "count": 9256,
      "max": [
        0.9996070265769958,
        0.9996070265769958
      ],
      "min": [
        0.0003929999948013574,
        0.0003929999948013574
      ],
      "type": "VEC2"
    },
    {
      "bufferView": 0,
      "byteOffset": 4889844,
      "componentType": 5125,
      "count": 13674,
      "type": "SCALAR"
    },
    {
      "bufferView": 2,
      "byteOffset": 16577832,
      "componentType": 5126,
      "count": 5764,
      "max": [
        0.8092723488807678,
        1.8511747121810913,
        2.376600503921509
      ],
      "min": [
        -1.2958941459655762,
        -0.00042222184129059315,
        -3.530000686645508
      ],
      "type": "VEC3"
    },
    {
      "bufferView": 2,
      "byteOffset": 16647000,
      "componentType": 5126,
      "count": 5764,
      "max": [
        0.9999969601631165,
        1.0,
        0.9998762607574463
      ],
      "min": [
        -0.9999849200248718,
        -0.9999779462814331,
        -0.9988311529159546
      ],
      "type": "VEC3"
    },
    {
      "bufferView": 3,
      "byteOffset": 11034800,
      "componentType": 5126,
      "count": 5764,
      "max": [
        0.9999549984931946,
        0.9999720454216003,
        0.9999926686286926,
        1.0
      ],
      "min": [
        -0.9984834790229797,
        -0.9998931288719177,
        -0.9999924302101135,
        -1.0
      ],
      "type": "VEC4"
    },
    {
      "bufferView": 1,
      "byteOffset": 16559016,
      "componentType": 5126,
      "count": 5764,
      "max": [
        0.9988189935684204,
        0.9980810284614563
      ],
      "min": [
        0.0007486767717637122,
        0.0006381216226145625
      ],
      "type": "VEC2"
    },
    {
      "bufferView": 1,
      "byteOffset": 16605128,
      "componentType": 5126,
      "count": 5764,
      "max": [
        0.9988189935684204,
        0.9980810284614563
      ],
      "min": [
        0.0007486767717637122,
        0.0006381216226145625
      ],
      "type": "VEC2"
    },
    {
      "bufferView": 1,
      "byteOffset": 16651240,
      "componentType": 5126,
      "count": 5764,
      "max": [
        0.9988189935684204,
        0.9980810284614563
      ],
      "min": [
        0.0007486767717637122,
        0.0006381216226145625
      ],
      "type": "VEC2"
    },
    {
      "bufferView": 0,
      "byteOffset": 4944540,
      "componentType": 5125,
      "count": 15000,
      "type": "SCALAR"
    },
    {
      "bufferView": 2,
      "byteOffset": 16716168,
      "componentType": 5126,
      "count": 3529,
      "max": [
        0.2727481722831726,
        0.1967364400625229,
        0.2966068685054779
      ],
      "min": [
        -0.23011520504951477,
        -1.3869142094335984e-05,
        -0.3669472634792328
      ],
      "type": "VEC3"
    },
    {
      "bufferView": 2,
      "byteOffset": 16758516,
      "componentType": 5126,
      "count": 3529,
      "max": [
        0.9988526105880737,
        0.9999703168869019,
        0.9981104731559753
      ],
      "min": [
        -0.9997326731681824,
        -0.9999977946281433,
        -0.9997019171714783
      ],
      "type": "VEC3"
    },
    {
      "bufferView": 3,
      "byteOffset": 11127024,
      "componentType": 5126,
      "count": 3529,
      "max": [
        0.9999982118606567,
        0.9997304677963257,
        0.9997639060020447,
        1.0
      ],
      "min": [
        -0.9999698400497437,
        -0.9999850392341614,
        -0.9999520778656006,
        -1.0
      ],
      "type": "VEC4"
    },
    {
      "bufferView": 1,
      "byteOffset": 16697352,
      "componentType": 5126,
      "count": 3529,
      "max": [
        0.9994432926177979,
        0.9982573986053467
      ],
      "min": [
        0.001374462153762579,
        0.0007360000163316727
      ],
      "type": "VEC2"
    },
    {
      "bufferView": 1,
      "byteOffset": 16725584,
      "componentType": 5126,
      "count": 3529,
      "max": [
        0.9994432926177979,
        0.9982573986053467
      ],
      "min": [
        0.001374462153762579,
        0.0007360000163316727
      ],
      "type": "VEC2"
    },
    {
      "bufferView": 1,
      "byteOffset": 16753816,
      "componentType": 5126,
      "count": 3529,
      "max": [
        0.9994432926177979,
        0.9982573986053467
      ],
      "min": [
        0.001374462153762579,
        0.0007360000163316727
      ],
      "type": "VEC2"
    },
    {
      "bufferView": 0,
      "byteOffset": 5004540,
      "componentType": 5125,
      "count": 5424,
      "type": "SCALAR"
    },
    {
      "bufferView": 2,
      "byteOffset": 16800864,
      "componentType": 5126,
      "count": 3529,
      "max": [
        0.2727481722831726,
        0.1967364400625229,
        0.2966068685054779
      ],
      "min": [
        -0.23011520504951477,
        -1.3869142094335984e-05,
        -0.3669472634792328
      ],
      "type": "VEC3"
    },
    {
      "bufferView": 2,
      "byteOffset": 16843212,
      "componentType": 5126,
      "count": 3529,
      "max": [
        0.9988526105880737,
        0.9999703168869019,
        0.9981104731559753
      ],
      "min": [
        -0.9997326731681824,
        -0.9999977946281433,
        -0.9997019171714783
      ],
      "type": "VEC3"
    },
    {
      "bufferView": 3,
      "byteOffset": 11183488,
      "componentType": 5126,
      "count": 3529,
      "max": [
        0.9999982118606567,
        0.9997304677963257,
        0.9997639060020447,
        1.0
      ],
      "min": [
        -0.9999698400497437,
        -0.9999850392341614,
        -0.9999520778656006,
        -1.0
      ],
      "type": "VEC4"
    },
    {
      "bufferView": 1,
      "byteOffset": 16782048,
      "componentType": 5126,
      "count": 3529,
      "max": [
        0.9994432926177979,
        0.9982573986053467
      ],
      "min": [
        0.001374462153762579,
        0.0007360000163316727
      ],
      "type": "VEC2"
    },
    {
      "bufferView": 1,
      "byteOffset": 16810280,
      "componentType": 5126,
      "count": 3529,
      "max": [
        0.9994432926177979,
        0.9982573986053467
      ],
      "min": [
        0.001374462153762579,
        0.0007360000163316727
      ],
      "type": "VEC2"
    },
    {
      "bufferView": 1,
      "byteOffset": 16838512,
      "componentType": 5126,
      "count": 3529,
      "max": [
        0.9994432926177979,
        0.9982573986053467
      ],
      "min": [
        0.001374462153762579,
        0.0007360000163316727
      ],
      "type": "VEC2"
    },
    {
      "bufferView": 0,
      "byteOffset": 5026236,
      "componentType": 5125,
      "count": 5424,
      "type": "SCALAR"
    },
    {
      "bufferView": 2,
      "byteOffset": 16885560,
      "componentType": 5126,
      "count": 3819,
      "max": [
        0.13860636949539185,
        0.25298941135406494,
        0.2545311152935028
      ],
      "min": [
        -0.13877899944782257,
        0.0009526040521450341,
        -0.28999167680740356
      ],
      "type": "VEC3"
    },
    {
      "bufferView": 2,
      "byteOffset": 16931388,
      "componentType": 5126,
      "count": 3819,
      "max": [
        0.9998449087142944,
        0.9999445080757141,
        0.9996511936187744
      ],
      "min": [
        -0.9999281764030457,
        -0.9999721646308899,
        -0.9997630715370178
      ],
      "type": "VEC3"
    },
    {
      "bufferView": 3,
      "byteOffset": 11239952,
      "componentType": 5126,
      "count": 3819,
      "max": [
        0.9999921321868896,
        0.9999804496765137,
        0.9999989867210388,
        1.0
      ],
      "min": [
        -0.999999463558197,
        -0.9996384382247925,
        -0.9999906420707703,
        -1.0
      ],
      "type": "VEC4"
    },
    {
      "bufferView": 1,
      "byteOffset": 16866744,
      "componentType": 5126,
      "count": 3819,
      "max": [
        0.9996063113212585,
        0.9991257190704346
      ],
      "min": [
        0.0008620143053121865,
        0.00038300000596791506
      ],
      "type": "VEC2"
    },
    {
      "bufferView": 1,
      "byteOffset": 16897296,
      "componentType": 5126,
      "count": 3819,
      "max": [
        0.9996063113212585,
        0.9991257190704346
      ],
      "min": [
        0.0008620143053121865,
        0.00038300000596791506
      ],
      "type": "VEC2"
    },
    {
      "bufferView": 1,
      "byteOffset": 16927848,
      "componentType": 5126,
      "count": 3819,
      "max": [
        0.9996063113212585,
        0.9991257190704346
      ],
      "min": [
        0.0008620143053121865,
        0.00038300000596791506
      ],
      "type": "VEC2"
    },
    {
      "bufferView": 0,
      "byteOffset": 5047932,
      "componentType": 5125,
      "count": 5826,
      "type": "SCALAR"
    },
    {
      "bufferView": 2,
      "byteOffset": 16977216,
      "componentType": 5126,
      "count": 3819,
      "max": [
        0.1691703349351883,
        0.3087758719921112,
        0.3106575608253479
      ],
      "min": [
        -0.1693810373544693,
        0.0011626619379967451,
        -0.3539374768733978
      ],
      "type": "VEC3"
    },
    {
      "bufferView": 2,
      "byteOffset": 17023044,
      "componentType": 5126,
      "count": 3819,
      "max": [
        0.9998449087142944,
        0.9999445676803589,
        0.9996512532234192
      ],
      "min": [
        -0.9999281167984009,
        -0.9999721646308899,
        -0.9997630715370178
      ],
      "type": "VEC3"
    },
    {
      "bufferView": 3,
      "byteOffset": 11301056,
      "componentType": 5126,
      "count": 3819,
      "max": [
        0.9999921321868896,
        0.9999805092811584,
        0.9999989867210388,
        1.0
      ],
      "min": [
        -0.999999463558197,
        -0.9996383786201477,
        -0.999990701675415,
        -1.0
      ],
      "type": "VEC4"
    },
    {
      "bufferView": 1,
      "byteOffset": 16958400,
      "componentType": 5126,
      "count": 3819,
      "max": [
        0.9996063113212585,
        0.9991257190704346
      ],
      "min": [
        0.0008620143053121865,
        0.00038300000596791506
      ],
      "type": "VEC2"
    },
    {
      "bufferView": 1,
      "byteOffset": 16988952,
      "componentType": 5126,
      "count": 3819,
      "max": [
        0.9996063113212585,
        0.9991257190704346
      ],
      "min": [
        0.0008620143053121865,
        0.00038300000596791506
      ],
      "type": "VEC2"
    },
    {
      "bufferView": 1,
      "byteOffset": 17019504,
      "componentType": 5126,
      "count": 3819,
      "max": [
        0.9996063113212585,
        0.9991257190704346
      ],
      "min": [
        0.0008620143053121865,
        0.00038300000596791506
      ],
      "type": "VEC2"
    },
    {
      "bufferView": 0,
      "byteOffset": 5071236,
      "componentType": 5125,
      "count": 5826,
      "type": "SCALAR"
    }
  ],
  "asset": {
    "extras": {
      "author": "dasy444 (https://sketchfab.com/dasy444)",
      "license": "SKETCHFAB Standard (https://sketchfab.com/licenses)",
      "source": "https://sketchfab.com/3d-models/ruined-city-free-5-4b0b0021d91442079a91b075576efe4e",
      "title": "Ruined city FREE (5)"
    },
    "generator": "Sketchfab-0.3.0",
    "version": "2.0"
  },
  "bufferViews": [
    {
      "buffer": 0,
      "byteLength": 5094540,
      "name": "floatBufferViews",
      "target": 34963
    },
    {
      "buffer": 0,
      "byteLength": 17050056,
      "byteOffset": 5094540,
      "byteStride": 8,
      "name": "floatBufferViews",
      "target": 34962
    },
    {
      "buffer": 0,
      "byteLength": 17068872,
      "byteOffset": 22144596,
      "byteStride": 12,
      "name": "floatBufferViews",
      "target": 34962
    },
    {
      "buffer": 0,
      "byteLength": 11362160,
      "byteOffset": 39213468,
      "byteStride": 16,
      "name": "floatBufferViews",
      "target": 34962
    }
  ],
  "buffers": [
    {
      "byteLength": 50575628,
      "uri": "scene.bin"
    }
  ],
  "images": [
    {
      "uri": "textures/Material.001_baseColor.jpeg"
    },
    {
      "uri": "textures/Material.019_baseColor.jpeg"
    },
    {
      "uri": "textures/Material.019_normal.png"
    },
    {
      "uri": "textures/Material.002_baseColor.png"
    },
    {
      "uri": "textures/Material.002_normal.png"
    },
    {
      "uri": "textures/Material.005_baseColor.png"
    },
    {
      "uri": "textures/Material.005_normal.png"
    },
    {
      "uri": "textures/Material.006_baseColor.png"
    },
    {
      "uri": "textures/Material.006_normal.png"
    },
    {
      "uri": "textures/Material.008_baseColor.png"
    },
    {
      "uri": "textures/Material.008_normal.png"
    },
    {
      "uri": "textures/Material.007_baseColor.png"
    },
    {
      "uri": "textures/Material.007_normal.png"
    },
    {
      "uri": "textures/Material.009_baseColor.png"
    },
    {
      "uri": "textures/Material.009_normal.png"
    },
    {
      "uri": "textures/Material.011_baseColor.png"
    },
    {
      "uri": "textures/Material.011_normal.png"
    },
    {
      "uri": "textures/Material.013_baseColor.png"
    },
    {
      "uri": "textures/Material.013_normal.png"
    },
    {
      "uri": "textures/Material.014_baseColor.png"
    },
    {
      "uri": "textures/Material.014_normal.png"
    },
    {
      "uri": "textures/Material.015_baseColor.png"
    },
    {
      "uri": "textures/Material.015_normal.png"
    },
    {
      "uri": "textures/Material.017_baseColor.png"
    },
    {
      "uri": "textures/Material.017_normal.png"
    },
    {
      "uri": "textures/Material.018_baseColor.png"
    },
    {
      "uri": "textures/Material.018_normal.png"
    },
    {
      "uri": "textures/Material.020_baseColor.png"
    },
    {
      "uri": "textures/Material.020_normal.png"
    },
    {
      "uri": "textures/Material.021_baseColor.png"
    },
    {
      "uri": "textures/Material.021_normal.png"
    }
  ],
  "materials": [
    {
      "doubleSided": true,
      "name": "Material.001",
      "pbrMetallicRoughness": {
        "baseColorTexture": {
          "index": 0
        },
        "metallicFactor": 0.0,
        "roughnessFactor": 0.163667593498492
      }
    },
    {
      "doubleSided": true,
      "name": "Material.019",
      "normalTexture": {
        "index": 2
      },
      "pbrMetallicRoughness": {
        "baseColorTexture": {
          "index": 1
        },
        "metallicFactor": 0.0,
        "roughnessFactor": 0.8211145618000169
      }
    },
    {
      "doubleSided": true,
      "name": "Material.002",
      "normalTexture": {
        "index": 4
      },
      "pbrMetallicRoughness": {
        "baseColorTexture": {
          "index": 3
        },
        "metallicFactor": 0.0
      }
    },
    {
      "doubleSided": true,
      "name": "Material.005",
      "normalTexture": {
        "index": 6
      },
      "pbrMetallicRoughness": {
        "baseColorTexture": {
          "index": 5
        },
        "metallicFactor": 0.0
      }
    },
    {
      "doubleSided": true,
      "name": "Material.006",
      "normalTexture": {
        "index": 8
      },
      "pbrMetallicRoughness": {
        "baseColorTexture": {
          "index": 7
        },
        "metallicFactor": 0.0
      }
    },
    {
      "doubleSided": true,
      "name": "Material.008",
      "normalTexture": {
        "index": 10
      },
      "pbrMetallicRoughness": {
        "baseColorTexture": {
          "index": 9
        },
        "metallicFactor": 0.0
      }
    },
    {
      "doubleSided": true,
      "name": "Material.007",
      "normalTexture": {
        "index": 12
      },
      "pbrMetallicRoughness": {
        "baseColorTexture": {
          "index": 11
        },
        "metallicFactor": 0.0
      }
    },
    {
      "doubleSided": true,
      "name": "Material.009",
      "normalTexture": {
        "index": 14
      },
      "pbrMetallicRoughness": {
        "baseColorTexture": {
          "index": 13
        },
        "metallicFactor": 0.0
      }
    },
    {
      "doubleSided": true,
      "name": "Material.011",
      "normalTexture": {
        "index": 16
      },
      "pbrMetallicRoughness": {
        "baseColorTexture": {
          "index": 15
        },
        "metallicFactor": 0.0
      }
    },
    {
      "doubleSided": true,
      "name": "Material.013",
      "normalTexture": {
        "index": 18
      },
      "pbrMetallicRoughness": {
        "baseColorTexture": {
          "index": 17
        },
        "metallicFactor": 0.0
      }
    },
    {
      "doubleSided": true,
      "name": "Material.014",
      "normalTexture": {
        "index": 20
      },
      "pbrMetallicRoughness": {
        "baseColorTexture": {
          "index": 19
        },
        "metallicFactor": 0.0
      }
    },
    {
      "doubleSided": true,
      "name": "Material.015",
      "normalTexture": {
        "index": 22
      },
      "pbrMetallicRoughness": {
        "baseColorTexture": {
          "index": 21
        },
        "metallicFactor": 0.0
      }
    },
    {
      "doubleSided": true,
      "name": "Material.017",
      "normalTexture": {
        "index": 24
      },
      "pbrMetallicRoughness": {
        "baseColorTexture": {
          "index": 23
        },
        "metallicFactor": 0.0
      }
    },
    {
      "doubleSided": true,
      "name": "Material.018",
      "normalTexture": {
        "index": 26
      },
      "pbrMetallicRoughness": {
        "baseColorTexture": {
          "index": 25
        },
        "metallicFactor": 0.0
      }
    },
    {
      "doubleSided": true,
      "name": "Material.020",
      "normalTexture": {
        "index": 28
      },
      "pbrMetallicRoughness": {
        "baseColorTexture": {
          "index": 27
        },
        "metallicFactor": 0.0
      }
    },
    {
      "doubleSided": true,
      "name": "Material.021",
      "normalTexture": {
        "index": 30
      },
      "pbrMetallicRoughness": {
        "baseColorTexture": {
          "index": 29
        },
        "metallicFactor": 0.0,
        "roughnessFactor": 0.1818866226671577
      }
    }
  ],
  "meshes": [
    {
      "name": "Plane_Material.001_0",
      "primitives": [
        {
          "attributes": {
            "NORMAL": 1,
            "POSITION": 0,
            "TEXCOORD_0": 2
          },
          "indices": 3,
          "material": 0,
          "mode": 4
        }
      ]
    },
    {
      "name": "Plane.001_Material.019_0",
      "primitives": [
        {
          "attributes": {
            "NORMAL": 5,
            "POSITION": 4,
            "TANGENT": 6,
            "TEXCOORD_0": 7,
            "TEXCOORD_1": 8
          },
          "indices": 9,
          "material": 1,
          "mode": 4
        }
      ]
    },
    {
      "name": "node_0_Material.002_0",
      "primitives": [
        {
          "attributes": {
            "NORMAL": 11,
            "POSITION": 10,
            "TANGENT": 12,
            "TEXCOORD_0": 13,
            "TEXCOORD_1": 14,
            "TEXCOORD_2": 15
          },
          "indices": 16,
          "material": 2,
          "mode": 4
        }
      ]
    },
    {
      "name": "node_0.001_Material.005_0",
      "primitives": [
        {
          "attributes": {
            "NORMAL": 18,
            "POSITION": 17,
            "TANGENT": 19,
            "TEXCOORD_0": 20,
            "TEXCOORD_1": 21,
            "TEXCOORD_2": 22
          },
          "indices": 23,
          "material": 3,
          "mode": 4
        }
      ]
    },
    {
      "name": "node_0.002_Material.006_0",
      "primitives": [
        {
          "attributes": {
            "NORMAL": 25,
            "POSITION": 24,
            "TANGENT": 26,
            "TEXCOORD_0": 27,
            "TEXCOORD_1": 28,
            "TEXCOORD_2": 29
          },
          "indices": 30,
          "material": 4,
          "mode": 4
        }
      ]
    },
    {
      "name": "node_0.003_Material.008_0",
      "primitives": [
        {
          "attributes": {
            "NORMAL": 32,
            "POSITION": 31,
            "TANGENT": 33,
            "TEXCOORD_0": 34,
            "TEXCOORD_1": 35,
            "TEXCOORD_2": 36
          },
          "indices": 37,
          "material": 5,
          "mode": 4
        }
      ]
    },
    {
      "name": "node_0.004_Material.007_0",
      "primitives": [
        {
          "attributes": {
            "NORMAL": 39,
            "POSITION": 38,
            "TANGENT": 40,
            "TEXCOORD_0": 41,
            "TEXCOORD_1": 42,
            "TEXCOORD_2": 43
          },
          "indices": 44,
          "material": 6,
          "mode": 4
        }
      ]
    },
    {
      "name": "node_0.005_Material.009_0",
      "primitives": [
        {
          "attributes": {
            "NORMAL": 46,
            "POSITION": 45,
            "TANGENT": 47,
            "TEXCOORD_0": 48,
            "TEXCOORD_1": 49,
            "TEXCOORD_2": 50
          },
          "indices": 51,
          "material": 7,
          "mode": 4
        }
      ]
    },
    {
      "name": "node_0.006_Material.007_0",
      "primitives": [
        {
          "attributes": {
            "NORMAL": 53,
            "POSITION": 52,
            "TANGENT": 54,
            "TEXCOORD_0": 55,
            "TEXCOORD_1": 56,
            "TEXCOORD_2": 57
          },
          "indices": 58,
          "material": 6,
          "mode": 4
        }
      ]
    },
    {
      "name": "node_0.007_Material.002_0",
      "primitives": [
        {
          "attributes": {
            "NORMAL": 60,
            "POSITION": 59,
            "TANGENT": 61,
            "TEXCOORD_0": 62,
            "TEXCOORD_1": 63,
            "TEXCOORD_2": 64
          },
          "indices": 65,
          "material": 2,
          "mode": 4
        }
      ]
    },
    {
      "name": "node_0.008_Material.011_0",
      "primitives": [
        {
          "attributes": {
            "NORMAL": 67,
            "POSITION": 66,
            "TANGENT": 68,
            "TEXCOORD_0": 69,
            "TEXCOORD_1": 70,
            "TEXCOORD_2": 71
          },
          "indices": 72,
          "material": 8,
          "mode": 4
        }
      ]
    },
    {
      "name": "node_0.009_Material.011_0",
      "primitives": [
        {
          "attributes": {
            "NORMAL": 74,
            "POSITION": 73,
            "TANGENT": 75,
            "TEXCOORD_0": 76,
            "TEXCOORD_1": 77,
            "TEXCOORD_2": 78
          },
          "indices": 79,
          "material": 8,
          "mode": 4
        }
      ]
    },
    {
      "name": "node_0.010_Material.009_0",
      "primitives": [
        {
          "attributes": {
            "NORMAL": 81,
            "POSITION": 80,
            "TANGENT": 82,
            "TEXCOORD_0": 83,
            "TEXCOORD_1": 84,
            "TEXCOORD_2": 85
          },
          "indices": 86,
          "material": 7,
          "mode": 4
        }
      ]
    },
    {
      "name": "node_0.011_Material.013_0",
      "primitives": [
        {
          "attributes": {
            "NORMAL": 88,
            "POSITION": 87,
            "TANGENT": 89,
            "TEXCOORD_0": 90,
            "TEXCOORD_1": 91,
            "TEXCOORD_2": 92
          },
          "indices": 93,
          "material": 9,
          "mode": 4
        }
      ]
    },
    {
      "name": "node_0.012_Material.013_0",
      "primitives": [
        {
          "attributes": {
            "NORMAL": 95,
            "POSITION": 94,
            "TANGENT": 96,
            "TEXCOORD_0": 97,
            "TEXCOORD_1": 98,
            "TEXCOORD_2": 99
          },
          "indices": 100,
          "material": 9,
          "mode": 4
        }
      ]
    },
    {
      "name": "node_0.013_Material.014_0",
      "primitives": [
        {
          "attributes": {
            "NORMAL": 102,
            "POSITION": 101,
            "TANGENT": 103,
            "TEXCOORD_0": 104,
            "TEXCOORD_1": 105,
            "TEXCOORD_2": 106
          },
          "indices": 107,
          "material": 10,
          "mode": 4
        }
      ]
    },
    {
      "name": "node_0.014_Material.011_0",
      "primitives": [
        {
          "attributes": {
            "NORMAL": 109,
            "POSITION": 108,
            "TANGENT": 110,
            "TEXCOORD_0": 111,
            "TEXCOORD_1": 112,
            "TEXCOORD_2": 113
          },
          "indices": 114,
          "material": 8,
          "mode": 4
        }
      ]
    },
    {
      "name": "node_0.015_Material.015_0",
      "primitives": [
        {
          "attributes": {
            "NORMAL": 116,
            "POSITION": 115,
            "TANGENT": 117,
            "TEXCOORD_0": 118,
            "TEXCOORD_1": 119,
            "TEXCOORD_2": 120
          },
          "indices": 121,
          "material": 11,
          "mode": 4
        }
      ]
    },
    {
      "name": "node_0.016_Material.006_0",
      "primitives": [
        {
          "attributes": {
            "NORMAL": 123,
            "POSITION": 122,
            "TANGENT": 124,
            "TEXCOORD_0": 125,
            "TEXCOORD_1": 126,
            "TEXCOORD_2": 127
          },
          "indices": 128,
          "material": 4,
          "mode": 4
        }
      ]
    },
    {
      "name": "node_0.017_Material.014_0",
      "primitives": [
        {
          "attributes": {
            "NORMAL": 130,
            "POSITION": 129,
            "TANGENT": 131,
            "TEXCOORD_0": 132,
            "TEXCOORD_1": 133,
            "TEXCOORD_2": 134
          },
          "indices": 135,
          "material": 10,
          "mode": 4
        }
      ]
    },
    {
      "name": "node_0.018_Material.013_0",
      "primitives": [
        {
          "attributes": {
            "NORMAL": 137,
            "POSITION": 136,
            "TANGENT": 138,
            "TEXCOORD_0": 139,
            "TEXCOORD_1": 140,
            "TEXCOORD_2": 141
          },
          "indices": 142,
          "material": 9,
          "mode": 4
        }
      ]
    },
    {
      "name": "node_0.019_Material.011_0",
      "primitives": [
        {
          "attributes": {
            "NORMAL": 144,
            "POSITION": 143,
            "TANGENT": 145,
            "TEXCOORD_0": 146,
            "TEXCOORD_1": 147,
            "TEXCOORD_2": 148
          },
          "indices": 149,
          "material": 8,
          "mode": 4
        }
      ]
    },
    {
      "name": "node_0.020_Material.009_0",
      "primitives": [
        {
          "attributes": {
            "NORMAL": 151,
            "POSITION": 150,
            "TANGENT": 152,
            "TEXCOORD_0": 153,
            "TEXCOORD_1": 154,
            "TEXCOORD_2": 155
          },
          "indices": 156,
          "material": 7,
          "mode": 4
        }
      ]
    },
    {
      "name": "node_0.021_Material.017_0",
      "primitives": [
        {
          "attributes": {
            "NORMAL": 158,
            "POSITION": 157,
            "TANGENT": 159,
            "TEXCOORD_0": 160,
            "TEXCOORD_1": 161,
            "TEXCOORD_2": 162
          },
          "indices": 163,
          "material": 12,
          "mode": 4
        }
      ]
    },
    {
      "name": "node_0.022_Material.018_0",
      "primitives": [
        {
          "attributes": {
            "NORMAL": 165,
            "POSITION": 164,
            "TANGENT": 166,
            "TEXCOORD_0": 167,
            "TEXCOORD_1": 168,
            "TEXCOORD_2": 169
          },
          "indices": 170,
          "material": 13,
          "mode": 4
        }
      ]
    },
    {
      "name": "node_0.023_Material.020_0",
      "primitives": [
        {
          "attributes": {
            "NORMAL": 172,
            "POSITION": 171,
            "TANGENT": 173,
            "TEXCOORD_0": 174,
            "TEXCOORD_1": 175,
            "TEXCOORD_2": 176
          },
          "indices": 177,
          "material": 14,
          "mode": 4
        }
      ]
    },
    {
      "name": "node_0.024_Material.020_0",
      "primitives": [
        {
          "attributes": {
            "NORMAL": 179,
            "POSITION": 178,
            "TANGENT": 180,
            "TEXCOORD_0": 181,
            "TEXCOORD_1": 182,
            "TEXCOORD_2": 183
          },
          "indices": 184,
          "material": 14,
          "mode": 4
        }
      ]
    },
    {
      "name": "node_0.025_Material.021_0",
      "primitives": [
        {
          "attributes": {
            "NORMAL": 186,
            "POSITION": 185,
            "TANGENT": 187,
            "TEXCOORD_0": 188,
            "TEXCOORD_1": 189,
            "TEXCOORD_2": 190
          },
          "indices": 191,
          "material": 15,
          "mode": 4
        }
      ]
    },
    {
      "name": "node_0.026_Material.021_0",
      "primitives": [
        {
          "attributes": {
            "NORMAL": 193,
            "POSITION": 192,
            "TANGENT": 194,
            "TEXCOORD_0": 195,
            "TEXCOORD_1": 196,
            "TEXCOORD_2": 197
          },
          "indices": 198,
          "material": 15,
          "mode": 4
        }
      ]
    }
  ],
  "nodes": [
    {
      "children": [
        1
      ],
      "matrix": [
        1.0,
        0.0,
        0.0,
        0.0,
        0.0,
        2.220446049250313e-16,
        -1.0,
        0.0,
        0.0,
        1.0,
        2.220446049250313e-16,
        0.0,
        0.0,
        0.0,
        0.0,
        1.0
      ],
      "name": "Sketchfab_model"
    },
    {
      "children": [
        2
      ],
      "matrix": [
        0.009999999776482582,
        0.0,
        0.0,
        0.0,
        0.0,
        0.0,
        0.009999999776482582,
        0.0,
        0.0,
        -0.009999999776482582,
        0.0,
        0.0,
        0.0,
        0.0,
        0.0,
        1.0
      ],
      "name": "b333a73a2c7449cfb0c9b433f501054e.fbx"
    },
    {
      "children": [
        3,
        5,
        7,
        9,
        11,
        13,
        15,
        17,
        19,
        21,
        23,
        25,
        27,
        29,
        31,
        33,
        35,
        37,
        39,
        41,
        43,
        45,
        47,
        49,
        51,
        53,
        55,
        57,
        59
      ],
      "name": "RootNode"
    },
    {
      "children": [
        4
      ],
      "matrix": [
        100.0,
        0.0,
        0.0,
        0.0,
        0.0,
        -1.629206793918314e-05,
        -99.99999999999868,
        0.0,
        0.0,
        99.99999999999868,
        -1.629206793918314e-05,
        0.0,
        0.0,
        -0.9399384260177612,
        0.0,
        1.0
      ],
      "name": "Plane"
    },
    {
      "mesh": 0,
      "name": "Plane_Material.001_0"
    },
    {
      "children": [
        6
      ],
      "matrix": [
        100.0,
        0.0,
        0.0,
        0.0,
        -0.0,
        -1.629206793918314e-05,
        -99.99999999999868,
        0.0,
        0.0,
        99.99999999999868,
        -1.629206793918314e-05,
        0.0,
        -143.41603088378906,
        6.624692916870117,
        -483.0812072753906,
        1.0
      ],
      "name": "Plane.001"
    },
    {
      "mesh": 1,
      "name": "Plane.001_Material.019_0"
    },
    {
      "children": [
        8
      ],
      "matrix": [
        100.0,
        0.0,
        0.0,
        0.0,
        0.0,
        99.99999999999972,
        -7.5497901264043296e-06,
        0.0,
        0.0,
        7.5497901264043296e-06,
        99.99999999999972,
        0.0,
        -233.75680541992188,
        0.6020516157150269,
        -585.0408935546875,
        1.0
      ],
      "name": "node_0"
    },
    {
      "mesh": 2,
      "name": "node_0_Material.002_0"
    },
    {
      "children": [
        10
      ],
      "matrix": [
        100.0,
        0.0,
        0.0,
        0.0,
        0.0,
        99.99999999999972,
        -7.5497901264043296e-06,
        0.0,
        0.0,
        7.5497901264043296e-06,
        99.99999999999972,
        0.0,
        248.2228546142578,
        0.0,
        23.13619041442871,
        1.0
      ],
      "name": "node_0.001"
    },
    {
      "mesh": 3,
      "name": "node_0.001_Material.005_0"
    },
    {
      "children": [
        12
      ],
      "matrix": [
        100.0,
        0.0,
        0.0,
        0.0,
        0.0,
        99.9999999999981,
        -1.9470718370939613e-05,
        0.0,
        0.0,
        1.9470718370939613e-05,
        99.9999999999981,
        0.0,
        352.6375732421875,
        -12.497747421264648,
        0.0,
        1.0
      ],
      "name": "node_0.002"
    },
    {
      "mesh": 4,
      "name": "node_0.002_Material.006_0"
    },
    {
      "children": [
        14
      ],
      "matrix": [
        100.0,
        0.0,
        0.0,
        0.0,
        0.0,
        99.99999999999972,
        -7.5497901264043296e-06,
        0.0,
        0.0,
        7.5497901264043296e-06,
        99.99999999999972,
        0.0,
        -276.70867919921875,
        2.805241346359253,
        -379.8881530761719,
        1.0
      ],
      "name": "node_0.003"
    },
    {
      "mesh": 5,
      "name": "node_0.003_Material.008_0"
    },
    {
      "children": [
        16
      ],
      "matrix": [
        7.549789959870878e-06,
        -1.3234889800848443e-21,
        99.99999999999972,
        0.0,
        7.549791547489778e-06,
        99.99999999999972,
        -5.69993404078059e-13,
        0.0,
        -99.99999999999943,
        7.549791547489801e-06,
        7.549789959870878e-06,
        0.0,
        538.30029296875,
        0.0,
        -421.6662292480469,
        1.0
      ],
      "name": "node_0.004"
    },
    {
      "mesh": 6,
      "name": "node_0.004_Material.007_0"
    },
    {
      "children": [
        18
      ],
      "matrix": [
        7.549789959870878e-06,
        1.3234889800848443e-21,
        -99.99999999999972,
        0.0,
        -7.549791547489778e-06,
        99.99999999999972,
        -5.69993404078059e-13,
        0.0,
        99.99999999999943,
        7.549791547489801e-06,
        7.549789959870878e-06,
        0.0,
        -209.4573974609375,
        2.9298627376556396,
        25.71495819091797,
        1.0
      ],
      "name": "node_0.005"
    },
    {
      "mesh": 7,
      "name": "node_0.005_Material.009_0"
    },
    {
      "children": [
        20
      ],
      "matrix": [
        100.0,
        0.0,
        0.0,
        0.0,
        0.0,
        99.99999999999972,
        -7.5497901264043296e-06,
        0.0,
        0.0,
        7.5497901264043296e-06,
        99.99999999999972,
        0.0,
        -361.67950439453125,
        0.0,
        -2261.367919921875,
        1.0
      ],
      "name": "node_0.006"
    },
    {
      "mesh": 8,
      "name": "node_0.006_Material.007_0"
    },
    {
      "children": [
        22
      ],
      "matrix": [
        7.549789959870878e-06,
        -1.3234889800848443e-21,
        99.99999999999972,
        0.0,
        7.549791547489778e-06,
        99.99999999999972,
        -5.69993404078059e-13,
        0.0,
        -99.99999999999943,
        7.549791547489801e-06,
        7.549789959870878e-06,
        0.0,
        301.7712097167969,
        -2.4899771213531494,
        -1285.112548828125,
        1.0
      ],
      "name": "node_0.007"
    },
    {
      "mesh": 9,
      "name": "node_0.007_Material.002_0"
    },
    {
      "children": [
        24
      ],
      "matrix": [
        100.0,
        0.0,
        0.0,
        0.0,
        0.0,
        99.99999999999972,
        -7.5497901264043296e-06,
        0.0,
        0.0,
        7.5497901264043296e-06,
        99.99999999999972,
        0.0,
        361.3013916015625,
        0.0,
        -2023.695556640625,
        1.0
      ],
      "name": "node_0.008"
    },
    {
      "mesh": 10,
      "name": "node_0.008_Material.011_0"
    },
    {
      "children": [
        26
      ],
      "matrix": [
        73.88567522818788,
        -1.6355106061265844e-14,
        67.3862522780036,
        0.0,
        5.0875211219824395e-06,
        99.99999999999972,
        -5.578213938194193e-06,
        0.0,
        -67.3862522780034,
        7.549790851863476e-06,
        73.88567522818765,
        0.0,
        -268.1759033203125,
        0.0,
        -1221.1295166015625,
        1.0
      ],
      "name": "node_0.009"
    },
    {
      "mesh": 11,
      "name": "node_0.009_Material.011_0"
    },
    {
      "children": [
        28
      ],
      "matrix": [
        -99.99999999999886,
        1.2246467991473594e-14,
        -1.5099579909783709e-05,
        0.0,
        -1.1277401270150734e-12,
        99.99999999999972,
        7.549790138650709e-06,
        0.0,
        1.5099579909783667e-05,
        7.549790138650794e-06,
        -99.99999999999858,
        0.0,
        260.740234375,
        3.567786455154419,
        -419.2935485839844,
        1.0
      ],
      "name": "node_0.010"
    },
    {
      "mesh": 12,
      "name": "node_0.010_Material.009_0"
    },
    {
      "children": [
        30
      ],
      "matrix": [
        7.549789959870878e-06,
        1.3234889800848443e-21,
        -99.99999999999972,
        0.0,
        -7.549791547489778e-06,
        99.99999999999972,
        -5.69993404078059e-13,
        0.0,
        99.99999999999943,
        7.549791547489801e-06,
        7.549789959870878e-06,
        0.0,
        -733.73876953125,
        6.469992637634277,
        -464.2866516113281,
        1.0
      ],
      "name": "node_0.011"
    },
    {
      "mesh": 13,
      "name": "node_0.011_Material.013_0"
    },
    {
      "children": [
        32
      ],
      "matrix": [
        7.549789959870878e-06,
        -1.3234889800848443e-21,
        99.99999999999972,
        0.0,
        7.549791547489778e-06,
        99.99999999999972,
        -5.69993404078059e-13,
        0.0,
        -99.99999999999943,
        7.549791547489801e-06,
        7.549789959870878e-06,
        0.0,
        251.9091796875,
        6.469992637634277,
        -2716.44287109375,
        1.0
      ],
      "name": "node_0.012"
    },
    {
      "mesh": 14,
      "name": "node_0.012_Material.013_0"
    },
    {
      "children": [
        34
      ],
      "matrix": [
        100.0,
        0.0,
        0.0,
        0.0,
        0.0,
        99.99999999999972,
        -7.5497901264043296e-06,
        0.0,
        0.0,
        7.5497901264043296e-06,
        99.99999999999972,
        0.0,
        -659.022216796875,
        0.0,
        -970.6251220703125,
        1.0
      ],
      "name": "node_0.013"
    },
    {
      "mesh": 15,
      "name": "node_0.013_Material.014_0"
    },
    {
      "children": [
        36
      ],
      "matrix": [
        99.91229894280359,
        4.100140961013465e-15,
        -4.1870029955807855,
        0.0,
        -3.161099372231798e-07,
        99.99999999999972,
        -7.543168746225881e-06,
        0.0,
        4.187002995580773,
        7.5497888400301945e-06,
        99.91229894280329,
        0.0,
        -921.0795288085938,
        0.0,
        -1629.4532470703125,
        1.0
      ],
      "name": "node_0.014"
    },
    {
      "mesh": 16,
      "name": "node_0.014_Material.011_0"
    },
    {
      "children": [
        38
      ],
      "matrix": [
        100.0,
        0.0,
        0.0,
        0.0,
        0.0,
        99.99999999999972,
        -7.5497901264043296e-06,
        0.0,
        0.0,
        7.5497901264043296e-06,
        99.99999999999972,
        0.0,
        -141.6352081298828,
        0.0,
        -340.2698974609375,
        1.0
      ],
      "name": "node_0.015"
    },
    {
      "mesh": 17,
      "name": "node_0.015_Material.015_0"
    },
    {
      "children": [
        40
      ],
      "matrix": [
        -0.6852616879520879,
        -4.73297354326004e-13,
        -99.99765205453089,
        0.0,
        -1.9470296139796182e-05,
        99.9999999999981,
        1.3342513942899603e-07,
        0.0,
        99.997652054529,
        1.947075329922275e-05,
        -0.6852616879520657,
        0.0,
        -173.6440887451172,
        -12.370912551879883,
        -2890.9619140625,
        1.0
      ],
      "name": "node_0.016"
    },
    {
      "mesh": 18,
      "name": "node_0.016_Material.006_0"
    },
    {
      "children": [
        42
      ],
      "matrix": [
        -80.49919032449046,
        1.1710477293481648e-13,
        -59.32859245743514,
        0.0,
        -4.479183735543915e-06,
        99.99999999999972,
        6.077519469134174e-06,
        0.0,
        59.328592457434965,
        7.5497906283468486e-06,
        -80.49919032449021,
        0.0,
        222.9219970703125,
        0.0,
        -3296.68798828125,
        1.0
      ],
      "name": "node_0.017"
    },
    {
      "mesh": 19,
      "name": "node_0.017_Material.014_0"
    },
    {
      "children": [
        44
      ],
      "matrix": [
        100.0,
        0.0,
        0.0,
        0.0,
        0.0,
        99.99999999999972,
        -7.5497901264043296e-06,
        0.0,
        0.0,
        7.5497901264043296e-06,
        99.99999999999972,
        0.0,
        630.8676147460938,
        6.469992637634277,
        -1646.2291259765625,
        1.0
      ],
      "name": "node_0.018"
    },
    {
      "mesh": 20,
      "name": "node_0.018_Material.013_0"
    },
    {
      "children": [
        46
      ],
      "matrix": [
        7.549789959870878e-06,
        1.3234889800848443e-21,
        -99.99999999999972,
        0.0,
        -7.549791547489778e-06,
        99.99999999999972,
        -5.69993404078059e-13,
        0.0,
        99.99999999999943,
        7.549791547489801e-06,
        7.549789959870878e-06,
        0.0,
        434.6188659667969,
        0.0,
        -1008.4000854492188,
        1.0
      ],
      "name": "node_0.019"
    },
    {
      "mesh": 21,
      "name": "node_0.019_Material.011_0"
    },
    {
      "children": [
        48
      ],
      "matrix": [
        7.549789959870878e-06,
        1.3234889800848443e-21,
        -99.99999999999972,
        0.0,
        -7.549791547489778e-06,
        99.99999999999972,
        -5.69993404078059e-13,
        0.0,
        99.99999999999943,
        7.549791547489801e-06,
        7.549789959870878e-06,
        0.0,
        -283.2710266113281,
        2.9298627376556396,
        -1639.705322265625,
        1.0
      ],
      "name": "node_0.020"
    },
    {
      "mesh": 22,
      "name": "node_0.020_Material.009_0"
    },
    {
      "children": [
        50
      ],
      "matrix": [
        -4.481165931834097,
        1.8711839764668933e-12,
        -99.89954530372684,
        0.0,
        -1.9451161384935493e-05,
        99.9999999999981,
        8.72517172987829e-07,
        0.0,
        99.89954530372495,
        1.9470720722149985e-05,
        -4.481165931834008,
        0.0,
        0.0,
        0.0,
        -267.0893249511719,
        1.0
      ],
      "name": "node_0.021"
    },
    {
      "mesh": 23,
      "name": "node_0.021_Material.017_0"
    },
    {
      "children": [
        52
      ],
      "matrix": [
        100.0,
        0.0,
        0.0,
        0.0,
        0.0,
        99.99999999999972,
        -7.5497901264043296e-06,
        0.0,
        0.0,
        7.5497901264043296e-06,
        99.99999999999972,
        0.0,
        -836.85302734375,
        -40.28791809082031,
        -95.27249908447266,
        1.0
      ],
      "name": "node_0.022"
    },
    {
      "mesh": 24,
      "name": "node_0.022_Material.018_0"
    },
    {
      "children": [
        54
      ],
      "matrix": [
        100.0,
        0.0,
        0.0,
        0.0,
        0.0,
        99.99999999999972,
        -7.5497901264043296e-06,
        0.0,
        0.0,
        7.5497901264043296e-06,
        99.99999999999972,
        0.0,
        70.71185302734375,
        0.0,
        -192.3017578125,
        1.0
      ],
      "name": "node_0.023"
    },
    {
      "mesh": 25,
      "name": "node_0.023_Material.020_0"
    },
    {
      "children": [
        56
      ],
      "matrix": [
        51.1010990527147,
        1.0604022511520153e-12,
        85.95740892864205,
        0.0,
        6.48960483527528e-06,
        99.99999999999972,
        -3.858027477490676e-06,
        0.0,
        -85.95740892864181,
        7.54979060886396e-06,
        51.101099052714545,
        0.0,
        13.590473175048828,
        0.0,
        -822.5191040039063,
        1.0
      ],
      "name": "node_0.024"
    },
    {
      "mesh": 26,
      "name": "node_0.024_Material.020_0"
    },
    {
      "children": [
        58
      ],
      "matrix": [
        64.1859099259531,
        7.962901481472759e-14,
        -76.68225979310623,
        0.0,
        -5.789349802623607e-06,
        99.99999999999972,
        -4.8459014901323774e-06,
        0.0,
        76.68225979310601,
        7.549790221536303e-06,
        64.18590992595291,
        0.0,
        80.337890625,
        0.0,
        -1208.1585693359375,
        1.0
      ],
      "name": "node_0.025"
    },
    {
      "mesh": 27,
      "name": "node_0.025_Material.021_0"
    },
    {
      "children": [
        60
      ],
      "matrix": [
        99.99948110124738,
        -2.0214761586066695e-15,
        -0.3221482287175316,
        0.0,
        -2.432151314261599e-08,
        99.99999999999972,
        -7.549750950637538e-06,
        0.0,
        0.3221482287175307,
        7.549790126397815e-06,
        99.9994811012471,
        0.0,
        5.718505382537842,
        0.0,
        50.9953498840332,
        1.0
      ],
      "name": "node_0.026"
    },
    {
      "mesh": 28,
      "name": "node_0.026_Material.021_0"
    }
  ],
  "samplers": [
    {
      "magFilter": 9729,
      "minFilter": 9987,
      "wrapS": 10497,
      "wrapT": 10497
    }
  ],
  "scene": 0,
  "scenes": [
    {
      "name": "Sketchfab_Scene",
      "nodes": [
        0
      ]
    }
  ],
  "textures": [
    {
      "sampler": 0,
      "source": 0
    },
    {
      "sampler": 0,
      "source": 1
    },
    {
      "sampler": 0,
      "source": 2
    },
    {
      "sampler": 0,
      "source": 3
    },
    {
      "sampler": 0,
      "source": 4
    },
    {
      "sampler": 0,
      "source": 5
    },
    {
      "sampler": 0,
      "source": 6
    },
    {
      "sampler": 0,
      "source": 7
    },
    {
      "sampler": 0,
      "source": 8
    },
    {
      "sampler": 0,
      "source": 9
    },
    {
      "sampler": 0,
      "source": 10
    },
    {
      "sampler": 0,
      "source": 11
    },
    {
      "sampler": 0,
      "source": 12
    },
    {
      "sampler": 0,
      "source": 13
    },
    {
      "sampler": 0,
      "source": 14
    },
    {
      "sampler": 0,
      "source": 15
    },
    {
      "sampler": 0,
      "source": 16
    },
    {
      "sampler": 0,
      "source": 17
    },
    {
      "sampler": 0,
      "source": 18
    },
    {
      "sampler": 0,
      "source": 19
    },
    {
      "sampler": 0,
      "source": 20
    },
    {
      "sampler": 0,
      "source": 21
    },
    {
      "sampler": 0,
      "source": 22
    },
    {
      "sampler": 0,
      "source": 23
    },
    {
      "sampler": 0,
      "source": 24
    },
    {
      "sampler": 0,
      "source": 25
    },
    {
      "sampler": 0,
      "source": 26
    },
    {
      "sampler": 0,
      "source": 27
    },
    {
      "sampler": 0,
      "source": 28
    },
    {
      "sampler": 0,
      "source": 29
    },
    {
      "sampler": 0,
      "source": 30
    }
  ]
}
